<svg width="107" height="79" viewBox="0 0 107 79" fill="none" xmlns="http://www.w3.org/2000/svg">
<path d="M2 57.0996H105C106.049 57.0996 106.9 57.9507 106.9 59V77C106.9 78.0493 106.049 78.9004 105 78.9004H2C0.950659 78.9004 0.0996094 78.0493 0.0996094 77V59C0.0996094 57.9507 0.950659 57.0996 2 57.0996Z" fill="#1A1A1A" stroke="#474747" stroke-width="0.2"/>
<rect x="4" y="61" width="41" height="5" fill="#1F1F1F"/>
<rect x="29" y="71" width="13" height="3" fill="#1F1F1F"/>
<rect x="12" y="71" width="13" height="3" fill="#1F1F1F"/>
<rect x="4" y="70" width="5" height="5" rx="2.5" fill="#1F1F1F"/>
<path d="M2 30.0996H105C106.049 30.0996 106.9 30.9507 106.9 32V50C106.9 51.0493 106.049 51.9004 105 51.9004H2C0.950659 51.9004 0.0996094 51.0493 0.0996094 50V32C0.0996094 30.9507 0.950659 30.0996 2 30.0996Z" fill="#1A1A1A" stroke="#474747" stroke-width="0.2"/>
<rect x="4" y="34" width="41" height="5" fill="#1F1F1F"/>
<rect x="29" y="44" width="13" height="3" fill="#1F1F1F"/>
<rect x="12" y="44" width="13" height="3" fill="#1F1F1F"/>
<rect x="4" y="43" width="5" height="5" rx="2.5" fill="#1F1F1F"/>
<rect x="0.1" y="0.1" width="106.8" height="21.8" rx="1.9" fill="#1A1A1A" stroke="#474747" stroke-width="0.2"/>
<rect x="4" y="4" width="41" height="5" fill="#1F1F1F"/>
<rect x="29" y="14" width="13" height="3" fill="#1F1F1F"/>
<rect x="12" y="14" width="13" height="3" fill="#1F1F1F"/>
<rect x="4" y="13" width="5" height="5" rx="2.5" fill="#1F1F1F"/>
</svg>
