<svg width="16" height="16" viewBox="0 0 16 16" fill="none" xmlns="http://www.w3.org/2000/svg">
<path fill-rule="evenodd" clip-rule="evenodd" d="M11.7103 2.26273C11.8808 2.43118 11.9765 2.65952 11.9765 2.89759C11.9765 3.13566 11.8808 3.364 11.7103 3.53244L7.19578 7.9884L11.7103 12.4444C11.7997 12.5266 11.8715 12.6258 11.9212 12.736C11.971 12.8462 11.9977 12.9651 11.9999 13.0858C12.002 13.2064 11.9795 13.3262 11.9338 13.4381C11.888 13.5499 11.8198 13.6516 11.7334 13.7369C11.647 13.8222 11.544 13.8894 11.4307 13.9346C11.3174 13.9798 11.196 14.002 11.0738 13.9999C10.9515 13.9977 10.831 13.9713 10.7194 13.9222C10.6077 13.8731 10.5072 13.8023 10.4239 13.7141L5.26619 8.62325C5.09574 8.45481 5 8.22647 5 7.9884C5 7.75033 5.09574 7.52199 5.26619 7.35355L10.4239 2.26273C10.5946 2.0945 10.8259 2 11.0671 2C11.3083 2 11.5396 2.0945 11.7103 2.26273Z" fill="white"/>
</svg>
