<svg width="16" height="16" viewBox="0 0 16 16" fill="none" xmlns="http://www.w3.org/2000/svg">
<path d="M13 3.66671L12.5867 10.35C12.4813 12.0574 12.4287 12.9114 12 13.5254C11.7884 13.8288 11.5159 14.0849 11.2 14.2774C10.562 14.6667 9.70667 14.6667 7.996 14.6667C6.28267 14.6667 5.426 14.6667 4.78667 14.2767C4.47059 14.0839 4.19814 13.8273 3.98667 13.5234C3.55867 12.9087 3.50667 12.0534 3.404 10.3434L3 3.66671M2 3.66671H14M10.704 3.66671L10.2487 2.72804C9.94667 2.10404 9.79533 1.79271 9.53467 1.59804C9.47676 1.55492 9.41545 1.51657 9.35133 1.48337C9.06267 1.33337 8.716 1.33337 8.02333 1.33337C7.31267 1.33337 6.95733 1.33337 6.66333 1.48937C6.59834 1.52418 6.53635 1.56432 6.478 1.60937C6.21467 1.81137 6.06733 2.13471 5.77267 2.78071L5.36867 3.66671M6.33333 11V7.00004M9.66667 11V7.00004" stroke="#AA2B2B" stroke-linecap="round" stroke-linejoin="round"/>
</svg>
