<svg width="16" height="16" viewBox="0 0 16 16" fill="none" xmlns="http://www.w3.org/2000/svg">
<path d="M2.66669 11.9867V6.47271C2.66669 4.05004 2.66669 2.83937 3.44802 2.08604C4.22935 1.33271 5.48602 1.33337 8.00002 1.33337C10.514 1.33337 11.7714 1.33337 12.552 2.08604C13.3334 2.83804 13.3334 4.04937 13.3334 6.47204V11.9874C13.3334 13.5247 13.3334 14.2934 12.818 14.568C11.82 15.1014 9.94869 13.3234 9.06002 12.788C8.54469 12.478 8.28669 12.3227 8.00002 12.3227C7.71335 12.3227 7.45535 12.478 6.94002 12.788C6.05135 13.3234 4.18002 15.1014 3.18202 14.568C2.66669 14.2934 2.66669 13.5247 2.66669 11.9874" stroke="white" stroke-linecap="round" stroke-linejoin="round"/>
</svg>
