<svg width="26" height="26" viewBox="0 0 26 26" fill="none" xmlns="http://www.w3.org/2000/svg">
<g filter="url(#filter0_d_51_55)">
<circle cx="13" cy="12" r="11" fill="url(#paint0_radial_51_55)"/>
<circle cx="13" cy="12" r="10.5" stroke="white"/>
</g>
<path d="M9.57149 13C9.19632 12.3856 8.99852 11.6794 8.99999 10.9595C8.99999 8.7725 10.791 7 13 7C15.209 7 17 8.7725 17 10.9595C17.0015 11.6794 16.8037 12.3856 16.4285 13M14.5 15.5L14.435 15.8235C14.365 16.177 14.3295 16.3535 14.25 16.4935C14.1275 16.7093 13.9291 16.8718 13.6935 16.9495C13.541 17 13.36 17 13 17C12.64 17 12.459 17 12.3065 16.95C12.0708 16.8722 11.8724 16.7095 11.75 16.4935C11.6705 16.3535 11.635 16.177 11.565 15.8235L11.5 15.5M13 14V11.5M10.6915 14.549C10.6455 14.411 10.6225 14.3415 10.625 14.2855C10.6278 14.2276 10.6474 14.1718 10.6813 14.1247C10.7152 14.0777 10.762 14.0415 10.816 14.0205C10.868 14 10.941 14 11.086 14H14.914C15.0595 14 15.132 14 15.184 14.02C15.2381 14.041 15.285 14.0773 15.3189 14.1244C15.3528 14.1716 15.3723 14.2275 15.375 14.2855C15.3775 14.3415 15.3545 14.4105 15.3085 14.549C15.2235 14.8045 15.181 14.9325 15.1155 15.036C14.9785 15.2523 14.7637 15.4078 14.5155 15.4705C14.3965 15.5 14.2625 15.5 13.994 15.5H12.006C11.7375 15.5 11.603 15.5 11.4845 15.47C11.2363 15.4074 11.0216 15.2521 10.8845 15.036C10.819 14.9325 10.7765 14.8045 10.6915 14.549Z" stroke="#1F6DAD" stroke-width="0.8" stroke-linecap="round" stroke-linejoin="round"/>
<defs>
<filter id="filter0_d_51_55" x="0" y="0" width="26" height="26" filterUnits="userSpaceOnUse" color-interpolation-filters="sRGB">
<feFlood flood-opacity="0" result="BackgroundImageFix"/>
<feColorMatrix in="SourceAlpha" type="matrix" values="0 0 0 0 0 0 0 0 0 0 0 0 0 0 0 0 0 0 127 0" result="hardAlpha"/>
<feOffset dy="1"/>
<feGaussianBlur stdDeviation="1"/>
<feComposite in2="hardAlpha" operator="out"/>
<feColorMatrix type="matrix" values="0 0 0 0 0 0 0 0 0 0 0 0 0 0 0 0 0 0 0.1 0"/>
<feBlend mode="normal" in2="BackgroundImageFix" result="effect1_dropShadow_51_55"/>
<feBlend mode="normal" in="SourceGraphic" in2="effect1_dropShadow_51_55" result="shape"/>
</filter>
<radialGradient id="paint0_radial_51_55" cx="0" cy="0" r="1" gradientUnits="userSpaceOnUse" gradientTransform="translate(13 4) rotate(90) scale(16 18.3625)">
<stop stop-color="#BAE0FF"/>
<stop offset="1" stop-color="white"/>
</radialGradient>
</defs>
</svg>
