<svg width="15" height="15" viewBox="0 0 15 15" fill="none" xmlns="http://www.w3.org/2000/svg">
<path d="M5.40015 9.59989C5.40015 7.6203 5.40015 6.6298 6.01544 6.0152C6.63003 5.3999 7.62051 5.3999 9.60008 5.3999H10.3001C12.2796 5.3999 13.2701 5.3999 13.8847 6.0152C14.5 6.6298 14.5 7.6203 14.5 9.59989V10.2999C14.5 12.2795 14.5 13.27 13.8847 13.8846C13.2701 14.4999 12.2796 14.4999 10.3001 14.4999H9.60008C7.62051 14.4999 6.63003 14.4999 6.01544 13.8846C5.40015 13.27 5.40015 12.2795 5.40015 10.2999V9.59989Z" stroke="white" stroke-linecap="round" stroke-linejoin="round"/>
<path d="M10.9998 5.39999C10.9977 3.33009 10.9669 2.2577 10.3642 1.5234C10.248 1.38175 10.1181 1.25186 9.97644 1.1356C9.20086 0.5 8.05148 0.5 5.74991 0.5C3.44905 0.5 2.29827 0.5 1.52338 1.1356C1.38174 1.25186 1.25185 1.38175 1.13559 1.5234C0.5 2.299 0.5 3.44839 0.5 5.74999C0.5 8.05088 0.5 9.20168 1.13559 9.97657C1.25185 10.1182 1.38174 10.2481 1.52338 10.3644C2.25837 10.9664 3.32935 10.9986 5.39992 11" stroke="white" stroke-linecap="round" stroke-linejoin="round"/>
</svg>
