<svg width="640" height="1661" viewBox="0 0 640 1661" fill="none" xmlns="http://www.w3.org/2000/svg">
<g filter="url(#filter0_n_71_334)">
<path d="M0 4.00003C0 1.79089 1.79086 0 4 0H636C638.209 0 640 1.79086 640 4V1657C640 1659.21 638.209 1661 636 1661H4.00002C1.79088 1661 0 1659.21 0 1657V4.00003Z" fill="url(#paint0_linear_71_334)"/>
<path d="M4 0.5H636C637.933 0.5 639.5 2.06701 639.5 4V1657C639.5 1658.93 637.933 1660.5 636 1660.5H4C2.06701 1660.5 0.5 1658.93 0.5 1657V4L0.504883 3.82031C0.598437 1.97084 2.12729 0.5 4 0.5Z" stroke="black" stroke-opacity="0.17"/>
</g>
<defs>
<filter id="filter0_n_71_334" x="0" y="0" width="640" height="1661" filterUnits="userSpaceOnUse" color-interpolation-filters="sRGB">
<feFlood flood-opacity="0" result="BackgroundImageFix"/>
<feBlend mode="normal" in="SourceGraphic" in2="BackgroundImageFix" result="shape"/>
<feTurbulence type="fractalNoise" baseFrequency="2 2" stitchTiles="stitch" numOctaves="3" result="noise" seed="7060" />
<feColorMatrix in="noise" type="luminanceToAlpha" result="alphaNoise" />
<feComponentTransfer in="alphaNoise" result="coloredNoise1">
<feFuncA type="discrete" tableValues="1 1 1 1 1 1 1 1 1 1 1 1 1 1 1 1 1 1 1 1 1 1 1 1 1 1 1 1 1 1 1 1 1 1 1 1 1 1 1 1 1 1 1 1 1 1 1 1 1 1 1 0 0 0 0 0 0 0 0 0 0 0 0 0 0 0 0 0 0 0 0 0 0 0 0 0 0 0 0 0 0 0 0 0 0 0 0 0 0 0 0 0 0 0 0 0 0 0 0 0 "/>
</feComponentTransfer>
<feComposite operator="in" in2="shape" in="coloredNoise1" result="noise1Clipped" />
<feFlood flood-color="rgba(255, 255, 255, 0.05)" result="color1Flood" />
<feComposite operator="in" in2="noise1Clipped" in="color1Flood" result="color1" />
<feMerge result="effect1_noise_71_334">
<feMergeNode in="shape" />
<feMergeNode in="color1" />
</feMerge>
</filter>
<linearGradient id="paint0_linear_71_334" x1="320" y1="-61.9417" x2="320" y2="1661" gradientUnits="userSpaceOnUse">
<stop offset="0.134615" stop-color="#1A1A1A"/>
</linearGradient>
</defs>
</svg>
