<svg width="577" height="1" viewBox="0 0 577 1" fill="none" xmlns="http://www.w3.org/2000/svg">
<path opacity="0.4" d="M44.6458 0.830383C45.0028 0.830544 46.4389 0.836917 47.0604 0.838324C46.3558 0.845903 43.3581 0.829754 44.6458 0.830383ZM108.411 0.0215C107.896 0.0252238 107.38 0.0289481 106.864 0.0326721C108.33 0.033179 110.3 0.0288882 111.66 0.0306899C111.883 0.0309999 111.305 0.0408167 111.832 0.0407588C112.358 0.0407048 112.257 0.0280749 113.023 0.0260279C113.882 0.0237048 117.815 0.029446 119.177 0.0283533C124.271 0.0239306 129.409 0.0139415 134.514 0.0179685C129.244 0.0292617 134.554 0.0373874 136.031 0.0329357C136.358 0.0319617 136.305 0.00730252 141.593 0.0128899C143.876 0.0154002 143.175 0.0324101 144.25 0.0375032C144.757 0.0399147 145.659 0.0396899 147.456 0.0341073C143.145 0.00968501 147.385 0.0113974 150.765 0.0106595C151.347 0.0105206 156.053 0.0143162 158.132 0.0133374C158.843 0.0129923 159.926 0.000275493 160.87 -7.92742e-06C161.519 -0.000193536 162.01 0.00681216 162.974 0.00651401C167.468 0.00521025 171.888 0.00503188 176.39 0.00784823C173.759 0.0403134 178.455 0.0219975 178.666 0.0235933C179.738 0.0325796 174.887 0.0346233 176.806 0.04037C179.487 0.0396162 182.168 0.0388963 184.848 0.038211C182.648 0.0339252 187.761 0.0110837 188.703 0.0219066C188.288 -0.00699797 200.921 0.0487929 202.845 0.03956C203.245 0.0376158 200.623 0.0229382 206.705 0.0305636C207.364 0.0314099 207.115 0.0400006 207.46 0.0392612C207.667 0.0388111 208.919 0.0116199 210.253 0.0270535C210.741 0.0326873 207.624 0.0500456 214.468 0.0442129C211.742 0.0157278 223.959 0.0312872 226.207 0.0388292C225.758 0.0349977 225.309 0.0311644 224.86 0.0273292C227.082 0.0379254 227.483 0.0286186 227.983 0.0292631C230 0.0318505 232.773 0.042047 234.652 0.0416995C236.851 0.0413128 236.859 0.0242134 239.422 0.0316216C238.814 0.0276724 238.206 0.0237204 237.597 0.0197658C239.368 0.021203 241.138 0.0226522 242.909 0.0241131C238.809 0.0454232 243.793 0.0254501 244.121 0.0250859C244.645 0.0244316 243.893 0.0334202 244.769 0.0325462C244.859 0.0323866 244.728 0.0236557 246.078 0.0231198C248.899 0.0220401 248.453 0.0327909 249.637 0.0330549C249.746 0.0330368 249.366 0.0251036 251.411 0.0239603C257.913 0.0203673 251.379 0.0298967 251.13 0.030909C250.802 0.0322315 253.031 0.0654687 247.509 0.0521969C249.363 0.0564579 249.55 0.0709333 249.758 0.071354C249.943 0.0716994 253.156 0.0706609 253.333 0.0702264C254.912 0.0658453 253.523 0.0555819 253.83 0.053919C254.082 0.0525918 257.953 0.0666187 258.86 0.0375168C260.712 0.0653067 257.794 0.0617888 254.689 0.0649758C254.236 0.0704213 257.646 0.0769399 257.825 0.0769836C262.224 0.0783672 259.789 0.0552708 260.751 0.041346C261.256 0.034073 263.048 0.049936 261.393 0.029348C265.386 0.0287458 262.965 0.039392 263.223 0.0412019C263.612 0.0438569 265.009 0.0386658 265.184 0.0394948C265.44 0.0407159 264.548 0.0472809 265.56 0.0500845C265.728 0.0504935 267.359 0.0392649 265.256 0.0327879C268.066 0.0355513 267.834 0.0253868 268.787 0.0460863C270.722 0.00841022 270.191 0.0693438 270.953 0.0717668C272.979 0.0781775 272.391 0.0478683 272.498 0.0464394C273.235 0.0373243 278.844 0.0499431 280.232 0.0462253C279.685 0.0675187 275.786 0.0446172 274.915 0.0484444C272.009 0.0612573 279.01 0.0608766 276.9 0.0871711C277.785 0.0800525 278.67 0.0729558 279.555 0.0658815C281.177 0.0839236 278.875 0.0905761 283.241 0.0859463C283.955 0.0712636 280.155 0.0870931 280.917 0.0755908C281.366 0.0688323 283.898 0.0683907 283.948 0.0647712C283.998 0.060403 281.71 0.0646513 282.07 0.0580441C282.858 0.0437911 291.203 0.0612674 284.85 0.066462C286.622 0.0669761 287.535 0.0962068 289.072 0.0878478C290.066 0.082492 284.475 0.0401269 292.862 0.0512694C293.041 0.0648958 289.509 0.0537485 289.418 0.0547383C289.289 0.056191 289.928 0.0871475 290.038 0.0887017C290.429 0.0937857 298.994 0.0811727 300.804 0.0972582C300.087 0.0794102 307.276 0.0970709 308.059 0.0921423C308.267 0.0907818 307.488 0.0797671 307.711 0.0787469C309.101 0.0727363 312.861 0.0935299 314.605 0.0948513C316.557 0.0963618 316.309 0.0871511 316.418 0.087222C317.277 0.088165 316.591 0.0939795 317.116 0.0942256C317.909 0.0945841 323.36 0.0986193 323.633 0.0974967C323.714 0.097145 322.824 0.0863748 324.012 0.0850602C324.218 0.0848391 324.087 0.0969379 327.606 0.0935697C331.845 0.0895957 324.663 0.0768533 326.424 0.0650899C329.147 0.0847462 329.058 0.0667661 329.797 0.0686106C330.052 0.0692808 331.954 0.0855448 334.02 0.08576C332.538 0.0873601 331.055 0.0889859 329.572 0.0906369C331.03 0.0940974 333.861 0.0923923 335.062 0.0960654C335.647 0.0978496 335.165 0.109968 336.437 0.110329C336.707 0.110336 337.779 0.0808228 334.445 0.0924447C334.179 0.0815011 335.765 0.0894384 336.501 0.0868206C336.612 0.086406 337.051 0.0687129 337.991 0.0804312C338.217 0.0833199 335.76 0.134141 342.096 0.0999989C342.3 0.0989071 341.591 0.0919749 341.79 0.090742C341.927 0.0899094 343.544 0.0935109 343.723 0.0926967C343.906 0.0918199 343.124 0.0842512 343.342 0.0829872C344.458 0.0765064 345.922 0.105449 343.622 0.101953C344.39 0.105882 345.159 0.1098 345.928 0.113709C345.105 0.0920961 347.136 0.108485 348.2 0.108459C355.018 0.108428 350.452 0.0920715 351.625 0.0857355C353.51 0.0756644 352.07 0.110495 354.869 0.101522C355.128 0.100699 351.745 0.0833576 358.351 0.0961949C357.376 0.0961412 356.401 0.0960948 355.426 0.0960556C355.988 0.116518 358.947 0.0969351 359.174 0.0968392C361.769 0.0958249 360.015 0.101804 363.867 0.0941752C364.211 0.0934955 364.961 0.0988933 365.696 0.0969607C368.746 0.0890517 361.672 0.0880922 361.479 0.0799029C361.387 0.0758601 368.994 0.0823015 369.255 0.084356C370.364 0.0933475 365.807 0.0855107 366.676 0.0963599C366.993 0.100143 377.835 0.100437 380.01 0.106C382.52 0.112388 383.65 0.13909 383.666 0.109981C384.374 0.139076 385 0.120017 385.321 0.120462C389.203 0.125931 389.21 0.126194 392.539 0.125986C393.273 0.125957 393.894 0.134919 394.154 0.133675C394.305 0.132923 394.023 0.123619 394.764 0.121387C395.793 0.118357 401.981 0.132469 402.441 0.137728C402.901 0.14301 399.828 0.137877 400.379 0.146445C402.603 0.148912 404.736 0.148512 406.975 0.151067C407.905 0.152151 407.428 0.157399 407.829 0.157813C408 0.157998 411.212 0.155518 411.076 0.153374C410.757 0.14832 400.84 0.143949 403.451 0.136045C403.955 0.134534 405.735 0.148917 405.452 0.132894C414.312 0.143519 423.172 0.154287 432.033 0.165166C426.942 0.171997 421.213 0.157381 415.881 0.154139C415.15 0.15369 412.68 0.150238 412.98 0.158328C417.514 0.163821 423.151 0.164312 427.505 0.172794C427.644 0.173068 427.133 0.179467 427.655 0.180956C428.63 0.183705 431.807 0.175361 432.341 0.178623C432.432 0.179338 430.624 0.186773 431.174 0.192858C432.585 0.208394 432.943 0.176679 434.157 0.178087C435.095 0.179231 441.4 0.199526 442.97 0.191301C444.639 0.182601 438.323 0.181498 438.79 0.173529C443.064 0.168863 447.39 0.181631 451.429 0.184195C451.5 0.184237 450.882 0.177342 451.783 0.177288C453.351 0.177209 453.762 0.186507 454.525 0.188613C455.348 0.190863 458.259 0.192247 458.648 0.195802C458.698 0.196262 458.108 0.204446 458.019 0.204617C456.751 0.207118 456.3 0.19536 456.185 0.195105C455.752 0.194284 455.326 0.198274 454.93 0.197668C454.279 0.196663 453.921 0.192288 453.062 0.191162C452.469 0.190374 453.041 0.198702 452.47 0.197848C452.26 0.197537 449.998 0.177535 449.787 0.195748C449.721 0.201549 468.222 0.224443 470.072 0.221785C468.485 0.218303 466.899 0.214798 465.313 0.211271C468.534 0.219197 472.404 0.209014 472.678 0.229495C484.623 0.241602 496.568 0.254077 508.514 0.266885C510.647 0.270422 509.477 0.280538 512.986 0.280503C512.079 0.276134 511.173 0.271724 510.266 0.267274C512.064 0.27155 520.034 0.283879 521.324 0.282916C521.491 0.28279 521.723 0.273348 523.714 0.274584C525.482 0.275687 525.765 0.28307 526.71 0.285355C527.503 0.287254 528.394 0.286306 528.629 0.28693C528.81 0.28742 528.882 0.291757 529.316 0.292922C530.688 0.296541 529.576 0.283555 530.938 0.298547C530.607 0.298749 530.275 0.298953 529.943 0.29916C531.599 0.302748 533.862 0.310923 531.423 0.311762C531.003 0.311913 531.363 0.308162 531.051 0.307884C518.802 0.297616 528.583 0.31441 532.875 0.311886C533.978 0.318846 540.156 0.320739 540.361 0.322101C540.647 0.323988 539.589 0.327682 540.975 0.332827C541.267 0.333877 549.527 0.337842 546.553 0.342675C545.939 0.343688 541.979 0.338821 541.024 0.338256C543.27 0.352079 548.536 0.339269 549.128 0.340371C551.517 0.344143 544.539 0.34671 549.921 0.352391C554.058 0.356725 550.174 0.345951 551.765 0.344014C552.659 0.343017 557.342 0.355191 557.215 0.344579C558.822 0.344909 557.882 0.349592 558.08 0.350168C558.274 0.350667 561.434 0.350373 562.46 0.353436C562.584 0.353809 562.193 0.358748 562.321 0.359291C562.572 0.360236 565.62 0.36176 565.742 0.361437C565.82 0.361205 565.093 0.356046 565.392 0.35521C565.74 0.354256 568.673 0.357957 568.834 0.356841C569.063 0.355139 565.442 0.353091 566.046 0.348604C567.715 0.351433 570.434 0.350686 571.535 0.347912C571.265 0.348754 569.647 0.347321 569.085 0.346366C569.35 0.339382 572.824 0.343141 571.636 0.347513C572.391 0.345266 571.876 0.343147 572.301 0.340759C572.413 0.340159 573.486 0.341156 573.692 0.340172C573.719 0.339965 572.612 0.336112 572.834 0.334923C573.235 0.33278 576.488 0.337055 576.754 0.338008C577.503 0.340699 574.851 0.340012 574.63 0.342723C574.598 0.343161 576.854 0.351212 576.888 0.351721C577.02 0.357194 574.51 0.350817 574.797 0.355984C575.418 0.357619 576.039 0.359241 576.659 0.36085C574.265 0.363484 569.836 0.356865 568.694 0.361726C572.243 0.363087 575.958 0.366751 575.951 0.379234C575.948 0.384504 574.417 0.38648 574.476 0.387894C574.702 0.392913 576.828 0.389178 576.906 0.389511C576.97 0.38985 577 0.390154 577 0.39043C577 0.39043 577 0.39043 577 0.390431C577 0.393204 573.969 0.393134 573.818 0.394355C573.563 0.39653 574.912 0.406909 574.909 0.408979C574.862 0.40936 572.704 0.410423 573.433 0.414529C574.169 0.418654 576.058 0.419651 576.124 0.420069C576.485 0.422417 573.181 0.422879 573.083 0.424178C573.031 0.424837 574.805 0.429692 574.857 0.430865C574.901 0.432049 573.552 0.434072 573.021 0.437642C572.625 0.440297 573.778 0.442803 573.576 0.443169C573.431 0.44341 570.309 0.442399 570.155 0.442855C569.926 0.443529 570.658 0.447133 570.551 0.447946C570.4 0.449126 569.392 0.447633 569.523 0.44893C569.622 0.449976 573.53 0.462398 573.505 0.465357C573.461 0.470539 569.322 0.45807 573.173 0.479115C573.2 0.479249 574.137 0.477836 574.163 0.477965C574.742 0.481713 571.737 0.487541 575.411 0.486488C568.576 0.493206 574.561 0.494344 573.549 0.503096C573.159 0.506504 570.509 0.508365 570.496 0.508888C570.754 0.513209 571.598 0.509668 571.885 0.51174C572.043 0.512872 569.672 0.518009 570.206 0.520905C570.482 0.522385 572.999 0.521156 573.102 0.521426C574.098 0.523933 572.877 0.527283 573.096 0.529207C573.241 0.530491 574.76 0.530078 574.799 0.5303C574.863 0.530752 572.801 0.536832 572.372 0.538924C572.045 0.540522 573.271 0.542295 573.043 0.543021C571.67 0.547427 568.749 0.538953 571.564 0.551404C571.736 0.55216 572.8 0.551298 572.832 0.551449C573.49 0.554956 571.529 0.556289 571.179 0.559672C570.577 0.565509 573.394 0.560821 571.051 0.566035C572.809 0.568582 573.788 0.567774 575.845 0.565551C570.15 0.571609 568.14 0.587708 574.463 0.582639C572.451 0.58388 572.674 0.591659 572.074 0.592272C571.701 0.592668 568.785 0.586896 570.122 0.603876C570.29 0.605981 572.061 0.601601 571.507 0.606648C567.255 0.609239 571.416 0.609664 571.421 0.610232C571.366 0.620852 560.977 0.621899 559.192 0.624617C557.12 0.627974 555.279 0.638931 554.829 0.639401C553.348 0.640836 554.577 0.634927 554.246 0.633508C553.91 0.63205 549.697 0.645181 549.487 0.644922C548.671 0.64364 549.499 0.637083 549.414 0.636878C548.404 0.634242 542.746 0.643887 541.162 0.643922C541.211 0.647826 544.391 0.645177 542.406 0.653279C540.094 0.662842 539.962 0.645593 539.901 0.644866C529.308 0.654396 518.715 0.66358 508.122 0.672413C508.254 0.68314 515.179 0.669134 515.337 0.670428C516.262 0.677756 504.563 0.687966 503.128 0.685193C504.218 0.686666 505.308 0.688102 506.398 0.6895C504.537 0.70378 500.417 0.690939 497.724 0.698886C496.854 0.701509 498.525 0.705061 498.49 0.705423C497.512 0.711352 495.944 0.708861 497.117 0.701016C494.73 0.709636 495.078 0.702125 493.247 0.703135C493.153 0.703199 493.939 0.707841 492.49 0.71134C491.811 0.712983 488.189 0.716178 487.705 0.721388C487.505 0.723617 489.342 0.742961 489.569 0.724641C493.508 0.729772 490.828 0.715292 492.358 0.714328C492.592 0.714214 492.053 0.724683 495.906 0.716443C495.172 0.73492 490.735 0.725837 489.974 0.728672C488.405 0.734766 494.87 0.737695 496.056 0.722681C495.501 0.737075 496.514 0.724095 497.955 0.723288C499.532 0.722375 498.845 0.727115 499.698 0.726295C502.033 0.724067 501.065 0.715499 502.989 0.722186C501.113 0.697431 506.283 0.715627 507.79 0.720753C505.338 0.724581 502.887 0.728426 500.436 0.732286C500.576 0.733551 500.716 0.734813 500.856 0.736073C500.21 0.736544 499.565 0.737012 498.919 0.737477C499.023 0.736013 499.126 0.73455 499.23 0.73309C495.9 0.745346 495.088 0.736181 494.816 0.736315C491.322 0.738628 487.285 0.742645 483.751 0.746008C483.221 0.746494 483.585 0.755592 479.721 0.751918C478.489 0.75072 479.653 0.742215 478.255 0.744621C476.508 0.766483 476.541 0.750332 476.021 0.750767C474.53 0.752149 473.619 0.758077 473.481 0.758264C471.639 0.760797 468.941 0.762457 466.918 0.765095C466.88 0.765214 467.933 0.770668 466.618 0.769996C466.157 0.76986 462.016 0.745698 458.397 0.757846C459.339 0.758953 460.28 0.760039 461.221 0.761105C460.114 0.759413 452.358 0.773308 454.255 0.77935C455.417 0.782947 458.255 0.762122 458.567 0.779385C455.986 0.776525 441.731 0.797233 440.621 0.793895C440.468 0.793412 441.412 0.786612 441.2 0.786029C441.036 0.785584 437.771 0.789761 437.337 0.787793C437.079 0.786623 438.522 0.78173 438.405 0.779655C438.302 0.778207 434.224 0.778846 433.992 0.786689C434.993 0.782817 437.807 0.78319 436.331 0.79081C436.142 0.791768 435.158 0.787666 434.927 0.788866C432.787 0.800024 439.182 0.792388 440.172 0.791605C436.155 0.804731 429.941 0.798506 425.286 0.808743C423.405 0.803742 428.075 0.796536 425.947 0.792851C421.532 0.78508 424.772 0.802823 424.635 0.803741C423.538 0.811317 419.803 0.778592 419.801 0.805748C418.201 0.802914 418.719 0.79905 416.46 0.804376C416.757 0.806046 417.054 0.807711 417.351 0.809372C414.844 0.827369 409.536 0.790988 409.934 0.787464C411.003 0.778432 413.767 0.789391 414.003 0.788884C414.353 0.788117 415.319 0.759689 419.143 0.781757C420.709 0.762157 413.082 0.773395 416.552 0.758325C414.209 0.762077 404.567 0.754916 403.179 0.764142C403.013 0.765348 403.784 0.784041 401.402 0.775802C400.271 0.771852 402.998 0.769903 402.481 0.765857C400.889 0.753545 379.233 0.774647 375.119 0.777626C374.852 0.777795 374.95 0.771437 374.688 0.771635C373.882 0.77223 370.944 0.783271 369.502 0.781126C372.491 0.791264 366.686 0.795402 365.21 0.794901C362.969 0.794134 363.107 0.782713 362.139 0.780796C358.408 0.773288 352.626 0.803533 349.727 0.779253C349.886 0.804746 344.713 0.769077 342.36 0.769762C340.517 0.770345 337.843 0.788734 340.331 0.798038C337.149 0.798332 333.8 0.804728 330.816 0.807689C330.322 0.80818 331.001 0.800106 330.16 0.801183C330.083 0.801336 329.978 0.809003 329.255 0.810125C323.288 0.819489 326.192 0.801892 325.075 0.797589C324.451 0.795169 323.989 0.794023 323.651 0.793722C327.129 0.790778 331.141 0.78608 332.213 0.785407C331.298 0.769003 324.505 0.791865 322.515 0.788134C322.446 0.787995 322.687 0.77853 322.617 0.778491C322.615 0.778492 322.614 0.778493 322.612 0.778493C321.867 0.778067 317.118 0.783365 318.096 0.794231C318.358 0.797131 320.544 0.79624 323.136 0.794153C322.434 0.796538 322.958 0.806814 322.835 0.807313C321.333 0.813163 317.655 0.804444 316.35 0.80356C316.052 0.803375 316.073 0.810149 316.024 0.810185C314.838 0.80914 315.325 0.789533 314.107 0.810036C311.958 0.786698 318.135 0.804826 317.699 0.789338C317.365 0.777488 303.646 0.788914 303.687 0.808234C303.64 0.806187 303.451 0.803696 303.064 0.800921C302.206 0.794759 298.388 0.798125 297.729 0.80194C297.618 0.802683 297.662 0.82153 297.524 0.821756C297.179 0.822347 292.512 0.809174 290.769 0.820996C291.71 0.823326 292.652 0.825645 293.593 0.827952C287.908 0.830192 288.787 0.83554 290.681 0.840521C290.776 0.840537 290.868 0.841224 290.958 0.841267C292.426 0.844919 294.309 0.848211 294.337 0.849692C294.445 0.855361 284.8 0.862325 286.655 0.843885C286.914 0.841381 291.376 0.847587 289.167 0.835807C288.78 0.833741 285.914 0.838374 285.764 0.837034C284.757 0.828106 291.015 0.813653 290.25 0.800826C288.731 0.813817 286.782 0.807897 285.04 0.811698C284.247 0.813422 284.052 0.823081 283.955 0.823295C282.493 0.826294 283.313 0.81595 282.825 0.816362C282.564 0.816609 279.684 0.839047 280.228 0.809244C270.739 0.83405 277.603 0.831948 283.424 0.828269C281.585 0.839663 277.979 0.835685 276.361 0.838721C275.78 0.839826 276.124 0.849635 275.144 0.851956C273.125 0.856782 263.488 0.84842 260.977 0.846375C262.519 0.842366 262.068 0.831562 260.878 0.832653C259.688 0.833753 260.688 0.848096 260.456 0.849734C260.207 0.851452 254.623 0.846136 253.694 0.84828C257.898 0.841781 256.949 0.831116 253.381 0.830901C253.897 0.8276 254.413 0.824303 254.929 0.821008C252.838 0.826016 248.441 0.810295 247.232 0.815571C247.042 0.816422 247.723 0.825539 247.617 0.826016C246.556 0.830228 242.949 0.821599 242.781 0.824806C242.639 0.827487 244.178 0.834923 243.606 0.838899C243.487 0.83974 242.004 0.827509 240.543 0.830936C240 0.832201 240.327 0.840946 240.19 0.841489C239.052 0.846 239.724 0.830988 237.644 0.833843C236.12 0.835948 234.984 0.850776 232.878 0.846415C239.794 0.863424 233.98 0.856995 231.089 0.863285C230.625 0.864286 231.023 0.880315 228.254 0.873091C234.146 0.842643 226.574 0.858047 225.025 0.858034C224.94 0.857952 224.911 0.847302 224.151 0.847281C224.087 0.847303 224.179 0.854489 223.473 0.855183C216.777 0.861714 221.058 0.852719 219.786 0.845844C219.245 0.842909 215.988 0.853722 215.111 0.854126C214.909 0.854187 215.002 0.846649 214.222 0.847078C212.841 0.847854 211.605 0.85608 210.694 0.85687C210.587 0.856925 210.583 0.845035 208.856 0.849169C208.37 0.850325 207.825 0.85464 208.515 0.857951C210.802 0.868827 215.141 0.848632 217.726 0.859347C220.084 0.869089 212.65 0.871455 212.263 0.871568C212.121 0.87163 213.573 0.865474 212.098 0.864566C210.838 0.863807 208.536 0.884759 206.659 0.880598C206.516 0.880293 205.016 0.863081 205.085 0.862049C205.148 0.861297 207.451 0.857147 207.117 0.852152C207.077 0.851584 205.613 0.851927 205.422 0.848194C205.188 0.843655 204.557 0.798805 204.244 0.797714C203.442 0.79503 203.964 0.805217 203.445 0.80457C202.333 0.80322 198.473 0.790354 198.348 0.80598C198.985 0.806832 199.623 0.807682 200.26 0.80853C196.713 0.810562 198.225 0.817027 197.723 0.820017C197.181 0.823252 197.334 0.809505 196.138 0.80835C195.878 0.808102 190.874 0.811507 190.965 0.817267C193.732 0.80779 192.706 0.824892 192.834 0.825183C193.319 0.826235 193.938 0.816636 194.588 0.816753C199.163 0.817717 194.549 0.833283 195.629 0.837024C196.001 0.838279 196.742 0.83006 196.899 0.830457C197.412 0.83174 197.42 0.842378 197.762 0.841474C198.56 0.839375 197.629 0.824441 197.692 0.823648C198.405 0.814147 201.198 0.825505 199.459 0.842098C200.503 0.847855 200.626 0.827953 201.453 0.835791C203.099 0.851298 200.634 0.847601 199.965 0.850306C197.569 0.860067 196.858 0.85253 193.466 0.855566C192.244 0.856639 190.797 0.866502 190.23 0.867102C189.873 0.867492 186.502 0.834094 186.402 0.886951C185.092 0.881994 183.036 0.847351 181.685 0.849062C180.473 0.850627 180.859 0.869316 180.746 0.870051C180.572 0.871206 179.106 0.869865 178.611 0.872556C178.03 0.875736 178.32 0.882861 177.398 0.885859C175.104 0.893299 175.164 0.874152 174.928 0.872928C172.191 0.858762 173.389 0.885896 172.782 0.888128C172.217 0.890203 164.294 0.880227 162.626 0.887186C163.305 0.883311 163.984 0.879436 164.662 0.87556C163.448 0.863665 162.16 0.883234 162.138 0.861784C161.891 0.896429 159.384 0.87339 158.631 0.874309C158.335 0.874688 158.358 0.880591 157.986 0.880859C156.535 0.881952 153.264 0.87734 152.477 0.880348C149.073 0.893324 157.777 0.914556 158.462 0.915793C157.09 0.915488 149.331 0.923446 152.897 0.940018C153.449 0.942575 154.426 0.927036 154.735 0.92642C156.831 0.922359 155.183 0.93631 155.347 0.937626C155.627 0.939751 157.006 0.926268 157.37 0.927853C157.492 0.92836 156.71 0.940977 158.708 0.941156C157.725 0.95341 152.107 0.943656 151.37 0.946524C151.107 0.947548 152.753 0.973609 147.945 0.948351C148.001 0.950771 148.057 0.953192 148.112 0.955612C146.825 0.956107 145.537 0.956594 144.25 0.957074C142.86 0.957591 141.47 0.958027 140.081 0.958379C140.371 0.952841 141.875 0.941792 139.981 0.94397C138.892 0.945209 139.698 0.957726 139.598 0.958075C138.62 0.962366 121.308 0.951543 117.953 0.949207C116.812 0.948852 113.631 0.955891 113.388 0.955808C111.938 0.955565 106.801 0.944088 105.777 0.944217C105.137 0.944366 105.745 0.95497 105.174 0.95385C104.642 0.952791 105.193 0.943851 105.035 0.943269C103.728 0.938769 93.7987 0.938034 91.4409 0.925271C92.8819 0.930392 100.073 0.921418 99.9283 0.91431C99.8971 0.913358 98.1494 0.904058 97.7889 0.907082C97.1932 0.898258 95.1483 0.920217 94.036 0.913785C93.9102 0.913065 94.4056 0.900029 92.4204 0.894822C91.7366 0.893063 89.9459 0.901028 88.1437 0.886541C85.5347 0.888725 71.8173 0.84814 70.8762 0.859214C70.8483 0.859857 72.78 0.868298 71.4749 0.871218C69.7399 0.875011 71.298 0.853563 69.276 0.847508C68.9713 0.846709 63.3456 0.837601 63.1614 0.838534C61.4575 0.84796 66.3734 0.86421 66.3045 0.865607C66.1331 0.869255 62.0485 0.862299 61.8825 0.860942C61.7245 0.859705 65.0557 0.849776 61.0527 0.847342C61.5113 0.850453 61.9699 0.853573 62.4284 0.856703C60.5459 0.856391 60.3664 0.844015 59.9104 0.842264C58.4926 0.836831 56.9588 0.850656 54.6872 0.823567C54.0866 0.816448 55.0837 0.812474 55.0086 0.811427C54.287 0.802154 53.3664 0.820325 52.2814 0.802645C52.1997 0.801362 54.7248 0.798123 50.3114 0.787957C50.6152 0.790084 50.9189 0.792218 51.2227 0.794358C50.6004 0.796195 46.1319 0.787106 45.5307 0.784798C43.7745 0.778274 45.306 0.772371 43.5409 0.769177C44.673 0.785428 39.3054 0.77291 39.6142 0.76272C38.8645 0.774579 34.3048 0.751508 32.1613 0.745265C30.8088 0.741358 28.0501 0.738701 27.6204 0.736737C27.097 0.734415 27.256 0.726616 26.3108 0.722077C26.0413 0.720888 23.2274 0.718286 20.7575 0.702899C20.2788 0.699892 19.2735 0.684342 20.1632 0.683635C21.686 0.682248 24.5669 0.700623 24.5301 0.692569C24.4869 0.683919 20.6067 0.67894 19.5623 0.674981C14.7405 0.657282 17.5248 0.656661 17.4008 0.653706C17.0792 0.646822 14.4446 0.640661 14.3347 0.639846C13.8791 0.636458 15.746 0.636288 15.7742 0.632675C15.8082 0.627943 13.2687 0.6142 13.846 0.613921C14.6725 0.61338 17.0063 0.625234 17.1543 0.625252C19.0804 0.62447 16.4402 0.607944 15.7126 0.601451C15.492 0.599427 16.3709 0.598243 16.188 0.597435C13.3962 0.585402 15.5995 0.611626 13.7426 0.606582C12.0859 0.602081 14.2175 0.599282 14.1542 0.598712C14.0724 0.598147 12.0915 0.594161 11.7814 0.591237C11.6286 0.590081 16.7772 0.584938 16.5622 0.577952C14.9194 0.577047 13.2767 0.575996 11.634 0.57479C11.5052 0.566996 13.868 0.576022 14.1124 0.575605C14.6044 0.574651 13.2325 0.568733 13.2914 0.566368C13.323 0.56489 14.9331 0.561137 13.4785 0.557086C12.9785 0.555757 11.9294 0.559791 10.1086 0.552241C16.4452 0.552503 12.054 0.542954 11.8673 0.54031C11.6843 0.537529 14.7094 0.533481 11.0375 0.531698C10.8783 0.516927 11.1166 0.527123 12.16 0.525244C13.4382 0.522816 10.4841 0.51606 15.1557 0.522598C14.8899 0.515057 11.135 0.513846 10.9362 0.513179C10.7646 0.512613 11.5992 0.509597 11.3016 0.508316C7.78148 0.493976 10.1993 0.500805 9.17975 0.492292C9.08907 0.491487 5.76201 0.488306 8.29491 0.487289C12.9095 0.485054 14.8381 0.495714 15.6135 0.473253C12.2003 0.464555 8.06466 0.479174 7.02708 0.479148C5.43894 0.479633 7.08411 0.475527 6.88841 0.474429C6.82044 0.474087 5.45188 0.47469 5.4335 0.474389C4.45763 0.460286 11.526 0.472431 13.7514 0.469536C13.1549 0.467199 12.5584 0.464935 11.9619 0.462744C12.7712 0.462346 13.5804 0.461947 14.3897 0.461547C10.5344 0.458027 14.2538 0.459931 15.2151 0.445559C15.4309 0.442307 12.8981 0.449309 15.7874 0.438776C13.6564 0.438292 14.3361 0.435154 12.4065 0.440323C12.4563 0.435148 16.7978 0.425278 18.5101 0.420621C12.4608 0.420195 15.9105 0.436779 10.6809 0.431184C9.71111 0.438346 12.2073 0.434999 12.0037 0.436247C11.2734 0.44055 9.56145 0.436363 7.49591 0.450339C7.15959 0.452551 8.5827 0.458124 6.47681 0.458874C6.24389 0.458912 4.90204 0.454487 4.92064 0.454139C5.09853 0.450026 6.42639 0.450627 6.48121 0.448875C6.53266 0.447205 5.05122 0.449246 5.0461 0.448806C5.00058 0.443815 6.28216 0.44593 6.09602 0.444481C5.69404 0.441008 0.365317 0.435881 7.31983 0.43195C1.54336 0.443363 6.58026 0.438378 8.82977 0.434069C9.40343 0.432954 9.54872 0.42956 10.3661 0.427589C11.4176 0.425027 12.6482 0.42542 13.1923 0.42426C13.7775 0.422901 10.4527 0.418319 15.2613 0.415546C12.814 0.409968 8.49122 0.423518 6.08722 0.421181C1.23707 0.417669 9.46896 0.403982 10.3265 0.4015C10.555 0.400864 9.78902 0.39755 9.94132 0.397056C10.1904 0.396175 14.8623 0.391343 15.323 0.386659C15.7824 0.38194 13.6117 0.389456 13.4675 0.385613C13.3697 0.38315 19.0057 0.368623 15.9547 0.371813C13.8518 0.374335 9.97571 0.391487 9.32282 0.381585C12.4153 0.374953 15.5079 0.368366 18.6004 0.36184C16.9078 0.359965 15.2151 0.358505 13.5225 0.357482C16.9935 0.348747 19.9942 0.348602 23.2909 0.334919C15.3691 0.334842 25.863 0.316271 25.9784 0.313929C26.017 0.312451 22.899 0.30564 22.3973 0.304573C25.1602 0.29291 33.5559 0.26995 28.6439 0.264015C29.5355 0.265804 31.6945 0.250247 31.666 0.249488C31.3919 0.242 26.6829 0.259886 27.451 0.250805C28.341 0.240135 29.5881 0.247788 30.9573 0.243291C37.9833 0.220229 36.0557 0.180024 43.1007 0.167159C42.9605 0.165858 42.8204 0.164565 42.6803 0.163278C50.3378 0.14418 57.9954 0.128089 65.653 0.114822C68.649 0.0912737 76.6227 0.0634134 80.5389 0.0583548C81.3276 0.0571812 85.1993 0.0601527 85.4914 0.0614843C86.0325 0.0638886 83.0575 0.070121 84.4019 0.0740491C84.6857 0.0746667 91.2405 0.0687871 90.7718 0.0588758C90.0373 0.0587257 87.7385 0.0676294 87.3623 0.0657425C84.7195 0.0511375 104.927 0.0367717 105.928 0.029709C105.481 0.0265629 105.033 0.0234371 104.586 0.0203323C105.861 0.0206338 107.136 0.0210239 108.411 0.0215ZM49.8162 0.820899C49.0509 0.827496 47.1329 0.815921 45.9995 0.815185C44.4337 0.814398 41.772 0.837672 42.918 0.809718C45.2174 0.813814 47.5168 0.817536 49.8162 0.820899ZM83.4224 0.908376C81.8804 0.900086 83.0764 0.879714 84.3402 0.891119C84.4804 0.892389 85.5085 0.919571 83.4224 0.908376ZM67.2576 0.866618C67.3225 0.866487 68.655 0.869874 68.7015 0.870297C69.8965 0.881309 65.8791 0.870882 67.2576 0.866618ZM145.346 0.936285C143.647 0.937382 144.877 0.960416 145.933 0.950931C146 0.950329 145.457 0.936231 145.346 0.936285ZM144.137 0.935676C142.818 0.915069 140.16 0.95665 142.273 0.95259C142.478 0.952188 144.198 0.93669 144.137 0.935676ZM77.9263 0.889637C78.0998 0.883107 79.6903 0.889296 80.3695 0.892164C80.351 0.898471 78.5923 0.890108 77.9263 0.889637ZM118.252 0.939623C118.32 0.933666 112.792 0.929681 112.415 0.937166C113.288 0.934655 118.189 0.945117 118.252 0.939623ZM132.43 0.938404C132.289 0.937302 130.38 0.938253 130.435 0.943713C131.368 0.951239 133.061 0.943455 132.43 0.938404ZM160.608 0.940274C160.712 0.938891 159.281 0.904103 162.67 0.926874C163.168 0.930207 161.391 0.939411 161.568 0.940652C161.938 0.943072 162.23 0.944193 162.466 0.944384C160.887 0.947362 159.248 0.948798 159.089 0.94669C158.344 0.936733 160.562 0.940853 160.608 0.940274ZM175.401 0.913288C175.727 0.907587 177.803 0.910429 178.276 0.912715C178.357 0.913146 178.003 0.928085 178.939 0.926875C179.689 0.925878 178.568 0.910733 180.03 0.913026C181.508 0.915322 179.534 0.926402 179.663 0.927165C179.836 0.928165 182.122 0.921068 182.051 0.929943C181.998 0.93652 179.549 0.932348 178.943 0.933805C178.167 0.935681 179.108 0.946537 177.812 0.944319C176.997 0.942933 177.449 0.923619 177.277 0.922663C177.133 0.921895 174.286 0.933251 175.406 0.913348C175.404 0.913328 175.403 0.913308 175.401 0.913288ZM162.893 0.943506C162.774 0.944165 162.634 0.94452 162.466 0.944384C162.609 0.944113 162.751 0.943801 162.893 0.943506ZM54.2712 0.8258C55.0727 0.832316 52.6937 0.832138 51.7928 0.823994C51.7772 0.819304 54.1436 0.824803 54.2712 0.8258ZM164.356 0.927693C166.701 0.932385 164.976 0.93915 162.893 0.943506C163.554 0.939832 163.569 0.926123 164.356 0.927693ZM97.7889 0.907082C97.8877 0.908556 97.9504 0.910739 97.9583 0.914206C97.6984 0.910094 97.6752 0.908038 97.7889 0.907082ZM103.259 0.919827C105.134 0.911215 101.324 0.90744 101.348 0.915027C101.359 0.917921 103.183 0.920179 103.259 0.919827ZM147.525 0.937369C147.353 0.936268 150.018 0.902265 146.149 0.927797C148.214 0.931788 146.035 0.935504 146.067 0.938479C146.152 0.947036 149.62 0.938778 150.388 0.942455C150.99 0.927144 148.091 0.940995 147.529 0.937369C147.528 0.937369 147.526 0.937369 147.525 0.937369ZM202.063 0.918034C201.593 0.926982 200.102 0.924383 199.096 0.924022C199.566 0.915068 201.057 0.917684 202.063 0.918034ZM465.342 0.773074C458.448 0.785091 457.555 0.761416 463.862 0.765372C463.986 0.76547 465.76 0.770264 465.342 0.773074ZM406.176 0.816343C405.527 0.804536 407.677 0.801029 409.088 0.805026C409.408 0.805935 410.589 0.817347 409.24 0.820803C409.283 0.806026 407.197 0.801852 406.176 0.816343ZM165.681 0.917434C166.364 0.906795 168.466 0.914202 169.573 0.915709C168.897 0.924481 166.661 0.920693 165.681 0.917434ZM442.688 0.780264C441.961 0.780018 441.471 0.790193 441.596 0.7909C442.158 0.794131 443.516 0.785096 442.688 0.780264ZM158.898 0.916141C158.802 0.909808 161.585 0.903584 161.779 0.919239C161.184 0.918137 158.967 0.920117 158.898 0.916141ZM200.166 0.913639C199.734 0.910516 201.972 0.904445 202.649 0.907496C202.594 0.914179 200.449 0.915669 200.166 0.913639ZM430.989 0.793274C430.338 0.792932 428.713 0.793968 428.533 0.798204C428.309 0.803504 430.693 0.799779 430.989 0.793274ZM552.062 0.668658C552.144 0.669653 549.627 0.680687 548.507 0.679932C546.382 0.67834 551.973 0.667942 552.062 0.668658ZM449.566 0.76952C451.618 0.77684 449.34 0.769996 449.43 0.779479C450.811 0.778617 454.246 0.776088 451.884 0.768815C451.424 0.767401 450.21 0.769596 449.566 0.76952ZM447.673 0.767895C447.453 0.771177 445.974 0.782281 447.253 0.780478C447.844 0.779617 448.797 0.767942 447.673 0.767895ZM536.463 0.68885C534.624 0.684869 543.055 0.678954 543.297 0.67963C543.426 0.68002 543.509 0.680428 543.557 0.680799C543.867 0.67863 545.459 0.676558 545.644 0.680892C545.166 0.681058 543.863 0.682935 543.711 0.682596C543.646 0.682452 543.597 0.682303 543.564 0.682134C543.002 0.686791 536.816 0.689654 536.463 0.68885ZM522.493 0.697298C524.597 0.68574 524.97 0.701312 524.789 0.702C522.497 0.710989 523.992 0.697595 523.921 0.697128C523.761 0.696367 522.134 0.703558 522.499 0.697291C522.497 0.697293 522.495 0.697295 522.493 0.697298ZM533.599 0.689476C533.686 0.689187 535.453 0.687751 535.525 0.687907C536.974 0.691377 531.974 0.695579 533.599 0.689476ZM186.552 0.890696C187.817 0.89359 186.576 0.904997 185.735 0.901045C185.666 0.900654 185.436 0.888135 186.552 0.890696ZM446.663 0.77085C446.37 0.769663 438.867 0.769997 439.318 0.781769C439.955 0.779867 448.483 0.778835 446.663 0.77085ZM390.595 0.809789C391.918 0.809002 390.476 0.822841 389.77 0.818532C389.508 0.816924 390.261 0.809991 390.595 0.809789ZM155.145 0.901635C153.771 0.910538 154.055 0.880798 155.246 0.890955C155.293 0.891353 155.199 0.901288 155.145 0.901635ZM401.165 0.809792C396.602 0.820709 397.682 0.779792 403.614 0.789337C403.429 0.79123 403.243 0.793126 403.057 0.795023C409.904 0.796186 403.526 0.797497 401.849 0.800892C401.212 0.802185 401.746 0.808462 401.169 0.809837C401.167 0.809822 401.166 0.809807 401.165 0.809792ZM383.637 0.813593C379.243 0.786948 387.632 0.800885 390.038 0.795493C387.706 0.80895 384.668 0.809228 388.799 0.818755C382.76 0.825241 385.274 0.811854 385.033 0.81106C384.747 0.810156 383.825 0.814731 383.637 0.813593ZM395.228 0.805693C395.482 0.80469 397.396 0.809198 398.085 0.807763C397.121 0.818192 393.542 0.812559 395.228 0.805693ZM507.847 0.716738C508.006 0.711142 508.399 0.706779 509.909 0.707321C509.443 0.710481 508.478 0.713776 507.847 0.716738ZM48.3635 0.780065C47.3233 0.777124 45.2521 0.769561 45.8873 0.778332C45.9568 0.779137 48.3603 0.784242 48.3635 0.780065ZM424.872 0.782491C424.651 0.781788 418.93 0.785457 420.906 0.791967C421.502 0.793927 426.708 0.788878 424.872 0.782491ZM454.499 0.759742C454.02 0.760074 452.075 0.762946 452.034 0.764555C451.902 0.770105 454.29 0.765071 454.499 0.759742ZM43.1161 0.760513C42.9791 0.759519 39.802 0.752939 40.1512 0.75695C40.8142 0.764705 43.5856 0.764129 43.1161 0.760513ZM191.155 0.867537C191.42 0.867148 191.771 0.877583 191.863 0.877688C192.079 0.877817 196.941 0.873145 195.083 0.88683C194.774 0.889142 187.779 0.88487 186.869 0.883622C186.517 0.869259 189.505 0.882618 190.232 0.881041C190.36 0.880744 190.442 0.868695 191.152 0.867597C191.153 0.867577 191.154 0.867557 191.155 0.867537ZM515.716 0.703199C515.93 0.69798 521.646 0.689188 521.579 0.695094C519.625 0.697791 517.67 0.700493 515.716 0.703199ZM512.812 0.705266C511.593 0.702893 514.449 0.698937 515.291 0.699666C515.3 0.703003 512.99 0.705613 512.812 0.705266ZM443.659 0.744544C443.084 0.74656 444.851 0.754635 444.456 0.756758C444.202 0.758097 442.919 0.755556 442.51 0.758826C442.394 0.759864 443.703 0.767701 444.081 0.767004C444.619 0.766061 444.098 0.75952 444.684 0.75901C446.633 0.757338 448.36 0.760871 450.187 0.75926C450.352 0.759107 449.073 0.7553 450.48 0.754241C450.697 0.754075 452.004 0.760185 453.687 0.757722C457.404 0.732748 460.133 0.752008 464.851 0.740253C464.673 0.738419 461.145 0.735867 460.937 0.735813C456.994 0.735424 449.93 0.740393 445.8 0.743421C444.741 0.744192 445.255 0.748593 444.799 0.749114C444.438 0.749517 444.867 0.740321 443.659 0.744544ZM48.916 0.776255C48.4202 0.765919 46.6811 0.767799 45.5703 0.764687C45.9613 0.773722 47.8305 0.771773 48.916 0.776255ZM487.152 0.723847C486.595 0.724651 484.869 0.723855 484.727 0.726321C484.543 0.729555 487.034 0.729189 487.152 0.723847ZM218.567 0.866798C218.621 0.866448 219.96 0.866854 220.011 0.867235C221.208 0.87698 217.19 0.875733 218.567 0.866798ZM250.608 0.861632C251.624 0.859842 252.648 0.85575 252.99 0.865535C252.342 0.864208 250.489 0.868562 250.608 0.861632ZM294.812 0.846514C294.603 0.834141 297.66 0.841021 298.237 0.841892C298.023 0.847486 294.966 0.85543 294.812 0.846514ZM507.627 0.6933C509.496 0.692041 509.101 0.681078 510.288 0.685151C510.482 0.685852 511.107 0.708726 509.053 0.701882C508.683 0.700626 510.13 0.693708 507.627 0.6933ZM404.581 0.78901C405.056 0.781788 406.542 0.782844 407.546 0.782705C407.32 0.787949 405.295 0.788034 404.581 0.78901ZM37.3779 0.739559C36.5013 0.72921 32.4511 0.725093 33.4533 0.732814C33.5958 0.73393 36.8097 0.737902 37.3779 0.739559ZM170.434 0.876549C172.1 0.866549 168.648 0.863718 167.559 0.873445C168.052 0.872784 170.321 0.877209 170.434 0.876549ZM284.194 0.843694C284.274 0.843287 286.041 0.843542 286.12 0.843967C287.568 0.853087 282.569 0.852457 284.194 0.843694ZM240.071 0.848558C240.708 0.840506 244.894 0.84587 245.832 0.853499C244.929 0.865262 239.281 0.858644 240.071 0.848558ZM499.936 0.703524C501.27 0.702084 502.535 0.70239 503.759 0.703266C503.502 0.707417 500.077 0.706387 499.936 0.703524ZM290.681 0.840521C290.776 0.840537 290.868 0.841224 290.958 0.841267C290.864 0.841033 290.771 0.840759 290.681 0.840521ZM470.092 0.726087C468.974 0.725236 469.206 0.733197 469.275 0.733388C470.116 0.735313 471.357 0.727027 470.092 0.726087ZM47.6393 0.759865C47.252 0.750861 45.3726 0.753029 44.2915 0.748641C44.6051 0.755632 46.7685 0.758823 47.6393 0.759865ZM378.931 0.797637C377.527 0.78838 383.239 0.773487 384.443 0.77921C384.532 0.785271 379.137 0.798875 378.931 0.797637ZM165.259 0.859864C165.147 0.850988 162.748 0.861827 163.258 0.866C163.581 0.868657 165.326 0.86538 165.259 0.859864ZM387.315 0.781687C387.852 0.779192 389.103 0.785465 388.662 0.790016C388.097 0.795868 387.177 0.782401 387.315 0.781687ZM435.464 0.744838C435.229 0.744016 432.074 0.752834 433.377 0.758449C434.282 0.762325 434.426 0.752965 434.639 0.752787C434.876 0.752656 439.942 0.760226 435.464 0.744838ZM346.941 0.808836C348.131 0.805283 349.571 0.80797 350.817 0.807111C350.309 0.812089 347.447 0.814889 346.941 0.808836ZM174.508 0.856897C174.219 0.853349 166.342 0.851696 170.816 0.862456C171.077 0.863069 175.386 0.867696 174.508 0.856897ZM507.627 0.6933C507.391 0.693457 507.119 0.693465 506.803 0.693255C507.117 0.693168 507.389 0.69326 507.627 0.6933ZM486.399 0.711097C486.83 0.706798 484.662 0.707532 484.022 0.710178C483.825 0.715214 486.34 0.711697 486.399 0.711097ZM350.912 0.799316C351.629 0.795778 352.933 0.798505 353.821 0.797677C353.671 0.80289 351.222 0.804408 350.912 0.799316ZM300.496 0.815476C301.921 0.818227 303.676 0.816036 303.703 0.809289C303.732 0.810332 303.801 0.811424 303.916 0.812504C304.032 0.813571 305.559 0.809858 306.223 0.811896C310.195 0.824024 290.882 0.825747 302.076 0.802457C301.549 0.80679 301.022 0.81113 300.496 0.815476ZM234.408 0.833012C233.599 0.824462 231.333 0.835871 231.921 0.83919C232.33 0.841462 235.218 0.841615 234.408 0.833012ZM265.545 0.820102C265.303 0.818649 263.09 0.82525 263.033 0.829768C264.305 0.83414 266.647 0.826847 265.545 0.820102ZM228.188 0.824053C227.68 0.822829 227.032 0.837078 227.092 0.837684C227.608 0.842735 229.041 0.831742 228.188 0.824053ZM503.755 0.674634C502.999 0.672874 500.59 0.680767 500.066 0.686736C499.968 0.685751 499.705 0.684579 499.223 0.683296C499.224 0.683295 499.226 0.683294 499.227 0.683292C498.576 0.681666 479.107 0.694455 492.166 0.695109C492.575 0.695126 492.017 0.690475 493.681 0.690033C493.791 0.69001 493.845 0.694109 494.185 0.69403C494.966 0.693842 499.128 0.692901 499.965 0.688935C499.972 0.689679 500.026 0.690346 500.141 0.690902C501.167 0.695798 504.341 0.675925 503.755 0.674634ZM269.931 0.817613C269.486 0.815289 268.077 0.81803 267.931 0.823932C268.63 0.826597 270.965 0.823032 269.931 0.817613ZM174.263 0.831661C173.356 0.826662 171.057 0.836276 171.752 0.841265C172.178 0.844335 175.31 0.837399 174.263 0.831661ZM255.814 0.824697C261.016 0.83029 257.055 0.823804 257.852 0.814926C257.172 0.81818 256.493 0.821437 255.814 0.824697ZM527.83 0.66662C527.001 0.666307 527.976 0.656343 528.889 0.66046C529.176 0.661758 528.294 0.666766 527.83 0.66662ZM565.286 0.628457C564.578 0.622677 568.036 0.623124 566.688 0.628823C566.626 0.629038 565.337 0.628658 565.286 0.628457ZM539.113 0.650392C538.55 0.656078 538.184 0.657064 536.597 0.657242C538.946 0.653594 536.768 0.650993 539.113 0.650392ZM303.687 0.808234C303.696 0.808629 303.704 0.808921 303.703 0.809289C303.692 0.80893 303.688 0.808588 303.687 0.808234ZM223.297 0.827726C222.646 0.818901 220.821 0.819877 221.364 0.828796C221.417 0.829624 223.03 0.834387 223.297 0.827726ZM500.066 0.686736C500.152 0.687609 500.108 0.688256 499.965 0.688935C499.958 0.688236 499.995 0.687539 500.066 0.686736ZM233.096 0.818554C233.031 0.825209 235.809 0.8272 235.92 0.826395C237.514 0.814569 234.243 0.817924 233.096 0.818554ZM155.898 0.82297C155.754 0.823685 156.678 0.841249 157.245 0.83434C157.683 0.828981 156.434 0.820251 155.898 0.82297ZM544.499 0.643418C545.379 0.642623 546.617 0.641497 546.846 0.645117C546.256 0.645082 544.481 0.646295 544.499 0.643418ZM563.933 0.625062C562.893 0.630101 560.518 0.632448 559.002 0.633212C558.974 0.627731 562.957 0.627274 563.933 0.625062ZM506.141 0.675433C506.069 0.675202 503.863 0.674798 504.164 0.679469C504.604 0.686304 506.763 0.677553 506.141 0.675433ZM160.181 0.832168C161.167 0.826175 158.897 0.807946 157.857 0.822121C157.322 0.829383 160.015 0.833174 160.181 0.832168ZM217.598 0.816992C216.297 0.822134 219.523 0.830346 219.973 0.821382C219.374 0.820775 218.061 0.815175 217.598 0.816992ZM261.886 0.798716C257.785 0.774819 260.019 0.819764 260.746 0.815558C260.849 0.814957 261.987 0.799273 261.886 0.798716ZM27.2 0.68232C26.6194 0.683033 28.7842 0.696077 29.0644 0.691564C29.2374 0.688697 27.5714 0.68183 27.2 0.68232ZM323.651 0.793722C323.478 0.793869 323.306 0.794016 323.136 0.794153C323.264 0.79372 323.431 0.793527 323.651 0.793722ZM205.783 0.784258C208.67 0.820272 208.367 0.792257 208.618 0.792384C209.16 0.792705 210.42 0.802355 211.442 0.800594C210.272 0.80485 209.101 0.809109 207.931 0.813369C208.856 0.815897 216.886 0.827983 217.055 0.822058C217.296 0.813659 214.769 0.816689 214.695 0.815962C214.589 0.81493 214.194 0.791711 213.96 0.790858C213.574 0.78951 206.859 0.789947 205.783 0.784258ZM253.309 0.804777C253.968 0.80732 254.156 0.81627 254.462 0.814042C254.567 0.81328 254.583 0.804695 254.94 0.802389C254.396 0.803185 253.852 0.803981 253.309 0.804777ZM200.613 0.817666C199.795 0.806956 203.46 0.810603 203.577 0.811792C204.204 0.819028 201.281 0.826416 200.613 0.817666ZM231.71 0.811101C231.576 0.810509 228.762 0.807715 228.784 0.813629C229.529 0.818006 233.291 0.818567 231.71 0.811101ZM255.38 0.801696C256.369 0.802459 258.238 0.810601 258.024 0.79777C258.022 0.79777 258.021 0.797771 258.019 0.797771C257.139 0.799079 256.26 0.800388 255.38 0.801696ZM163.557 0.803622C161.725 0.782269 162.593 0.809311 164.215 0.816151C164.707 0.806512 163.858 0.807095 163.557 0.803622ZM157.694 0.787844C157.184 0.784007 151.931 0.788341 152.732 0.79967C153.017 0.803711 156.038 0.793449 156.177 0.794228C156.388 0.795384 155.424 0.80796 157.036 0.805431C156.941 0.801181 157.868 0.789127 157.694 0.787844ZM162.041 0.789963C160.22 0.773729 159.811 0.803801 161.18 0.803835C161.715 0.803869 162.301 0.792304 162.041 0.789963ZM169.478 0.792195C168.823 0.789383 167.078 0.785311 165.875 0.795354C167.485 0.796135 169.094 0.796908 170.704 0.797671C170.89 0.792006 170.051 0.794667 169.474 0.792195C169.475 0.792195 169.477 0.792195 169.478 0.792195ZM574.874 0.585128C573.428 0.582937 576.76 0.579261 576.901 0.579952C577.32 0.58224 575.521 0.586083 574.874 0.585128ZM15.8997 0.516309C15.4977 0.514384 15.2349 0.508707 14.3501 0.511259C15.2401 0.515703 16.13 0.520315 17.02 0.52509C17.7116 0.515722 16.339 0.518421 15.8997 0.516309ZM12.5012 0.481563C12.6269 0.481336 11.9402 0.467457 13.5643 0.476568C14.6617 0.483108 8.69417 0.488849 7.61697 0.483104C8.80721 0.480377 11.419 0.483359 12.5012 0.481563ZM2.04823 0.432714C1.97942 0.431901 4.24662 0.427881 4.50904 0.428249C5.88698 0.43036 2.42049 0.43719 2.04823 0.432714ZM9.281 0.427213C8.21772 0.425806 10.5732 0.421574 11.2752 0.422332C11.3433 0.424817 9.44525 0.427415 9.281 0.427213ZM560.224 0.417903C559.073 0.408975 558.044 0.426688 559.814 0.423748C559.899 0.423607 560.273 0.418331 560.224 0.417903ZM4.26472 0.418135C5.32799 0.419061 2.97251 0.423627 2.27054 0.423263C2.20525 0.421233 4.10282 0.418014 4.26472 0.418135ZM559.414 0.397531C557.886 0.390571 558.424 0.411321 558.615 0.412217C559.401 0.415799 562.098 0.409162 562.649 0.407555C558.613 0.408491 560.133 0.400778 559.414 0.397531ZM552.366 0.406285C550.948 0.407903 554.571 0.413845 555.263 0.408354C554.558 0.408297 552.769 0.405829 552.366 0.406285ZM543.762 0.395016C543 0.393834 540.733 0.390698 540.352 0.394087C541.185 0.393872 543.44 0.398471 543.762 0.395016ZM542.036 0.383503C540.845 0.377975 540.559 0.39195 541.933 0.388488C541.986 0.388354 542.08 0.383796 542.036 0.383503ZM535.338 0.374452C534.557 0.368165 533.664 0.381853 534.931 0.382926C535.307 0.383213 535.421 0.375164 535.338 0.374452ZM557.501 0.37434C556.382 0.371322 554.94 0.379334 557.329 0.381891C556.49 0.382695 555.651 0.383522 554.811 0.384373C557.942 0.391337 557.712 0.378867 558.61 0.380002C559.866 0.381586 559.767 0.391501 559.515 0.394505C560.545 0.388957 564.919 0.391682 567.448 0.392214C565.226 0.388348 561.62 0.381536 559.427 0.378354C558.801 0.377441 558.193 0.37979 557.66 0.37912C556.804 0.378022 557.564 0.374526 557.505 0.374343C557.504 0.374342 557.503 0.374341 557.501 0.37434ZM526.534 0.369102C524.237 0.360872 525.689 0.376625 526.987 0.374667C527.043 0.374497 526.591 0.369306 526.534 0.369102ZM1.21842 0.388435C4.28772 0.386528 2.05672 0.398275 8.4776 0.374899C5.78003 0.387854 8.32841 0.380677 7.80186 0.38479C7.37946 0.387997 5.79671 0.388908 6.71673 0.392013C5.50744 0.388902 0.257288 0.40049 0.0232265 0.400201C0.0254276 0.400197 0.0276287 0.400192 0.0298298 0.400188C-0.11075 0.400045 0.239007 0.389129 1.21842 0.388435ZM543.751 0.359638C542.985 0.342613 542.684 0.368594 541.178 0.353781C539.172 0.372375 546.718 0.35783 547.631 0.374866C539.437 0.367737 553.045 0.39449 547.325 0.366397C552.038 0.378453 548.87 0.364487 549.597 0.36192C550.375 0.35923 553.04 0.36475 552.905 0.358857C552.904 0.358856 552.902 0.358855 552.901 0.358854C551.27 0.357992 549.64 0.35715 548.01 0.356327C549.606 0.370313 546.274 0.36419 545.144 0.352656C544.68 0.354961 544.215 0.357289 543.751 0.359638ZM552.978 0.378034C552.817 0.377632 549.271 0.377081 549.5 0.379805C549.974 0.381716 555.006 0.382976 552.978 0.378034ZM568.584 0.386062C567.31 0.385154 565.342 0.381503 564.648 0.385389C565.921 0.3863 567.89 0.389829 568.584 0.386062ZM503.024 0.34244C501.401 0.346479 506.398 0.350841 504.952 0.34415C504.881 0.343832 503.104 0.342255 503.024 0.34244ZM540.06 0.359544C538.41 0.353253 539.19 0.370182 540.412 0.366707C540.483 0.366506 540.136 0.359834 540.06 0.359544ZM3.70564 0.381441C3.81602 0.377762 8.26929 0.370571 9.05868 0.368997C8.61018 0.373488 3.57903 0.385533 3.70564 0.381441ZM570.824 0.375342C568.291 0.361356 564.853 0.372417 564.476 0.371938C564.102 0.371327 564.689 0.366385 564.604 0.366176C564.409 0.36571 560.417 0.362937 560.224 0.363178C560.086 0.363379 560.808 0.371722 559.984 0.373576C561.591 0.37031 568.89 0.378611 569.268 0.378059C569.562 0.377649 567.35 0.368172 570.82 0.375339C570.821 0.37534 570.823 0.375341 570.824 0.375342ZM563.534 0.369546C564.532 0.373507 561.735 0.37179 561.058 0.370078C559.554 0.366222 563.406 0.369061 563.534 0.369546ZM556.808 0.361245C556.488 0.360248 553.606 0.357253 553.361 0.360882C554.725 0.366834 557.532 0.363531 556.808 0.361245ZM524.734 0.337527C523.985 0.337566 521.926 0.332606 521.808 0.336472C522.558 0.33644 524.616 0.341341 524.734 0.337527ZM18.8997 0.315802C17.6561 0.31553 20.5375 0.307047 21.3782 0.306679C21.4238 0.309326 19.0056 0.315821 18.8997 0.315802ZM539.78 0.324901C539.337 0.323371 530.294 0.318252 529.026 0.31904C530.266 0.322966 539.228 0.330655 539.635 0.329706C539.754 0.329409 539.837 0.325124 539.78 0.324901ZM559.337 0.341146C560.166 0.337222 560.707 0.343375 560.812 0.343533C561.837 0.345201 563.963 0.346155 563.497 0.350138C561.688 0.346661 557.686 0.349016 559.337 0.341146ZM524.091 0.311016C521.02 0.310591 526.918 0.321541 526.144 0.31493C526.095 0.314531 524.408 0.311066 524.091 0.311016ZM540.79 0.324259C541.468 0.320594 550.513 0.332543 551.965 0.33386C550.665 0.340053 549.616 0.333515 547.869 0.332295C547.398 0.331983 547.524 0.335245 547.473 0.335205C546.656 0.334631 547.268 0.331528 546.764 0.33102C546.446 0.330655 539.837 0.329416 540.79 0.324259ZM559.81 0.338332C560.316 0.336087 565.964 0.340584 566.191 0.341508C567.891 0.34824 560.249 0.339693 559.81 0.338332ZM539.961 0.316494C540.933 0.308252 545.426 0.31868 542.351 0.320253C542.057 0.320399 540.814 0.315281 539.961 0.316494ZM524.419 0.301817C524.268 0.301395 521.067 0.296496 521.009 0.299668C521.472 0.30133 526.138 0.30656 524.419 0.301817ZM526.078 0.292686C526.001 0.292693 526.752 0.299434 525.251 0.297278C525.126 0.297096 524.892 0.29002 523.006 0.290751C522.623 0.290907 522.029 0.294947 522.072 0.295274C524.037 0.307792 529.954 0.292826 526.078 0.292686ZM559.913 0.333883C559.609 0.3312 560.343 0.324931 561.005 0.329167C561.289 0.330983 560.76 0.334631 559.913 0.333883ZM514.267 0.289906C516.128 0.28613 510.286 0.279765 509.988 0.280929C510.176 0.284585 514.081 0.290277 514.267 0.289906ZM21.8118 0.26611C21.8103 0.266115 21.8088 0.266119 21.8074 0.266123C23.3728 0.262818 22.4032 0.270312 22.4765 0.270228C25.811 0.26783 24.9265 0.259583 25.448 0.25678C26.5661 0.25079 26.3859 0.264778 28.272 0.254057C25.1544 0.270803 27.9922 0.259636 28.0805 0.264337C28.4299 0.28318 23.9297 0.26593 22.3753 0.274673C22.1587 0.275778 23.7578 0.277405 23.2029 0.280616C21.3987 0.290281 15.8048 0.279173 21.8118 0.26611ZM561.516 0.32908C562.242 0.325723 567.751 0.3355 566.29 0.337225C566.055 0.337481 560.448 0.334015 561.516 0.32908ZM304.187 0.131314C305.511 0.124085 302.442 0.113614 301.874 0.119451C301.591 0.122368 303.605 0.134499 304.187 0.131314ZM282.673 0.0889215C281.1 0.0899048 279.442 0.122646 281.399 0.118173C281.607 0.117674 282.854 0.0935966 282.673 0.0889215ZM385.975 0.159066C384.332 0.147753 384.43 0.166858 385.636 0.167351C386.062 0.167529 386.027 0.159424 385.975 0.159066ZM323.279 0.126148C323.115 0.125332 321.216 0.12577 321.285 0.130661C321.987 0.133896 324.342 0.131698 323.279 0.126148ZM386.497 0.156708C385.523 0.159501 387.199 0.174273 388.389 0.161678C387.785 0.16238 386.597 0.156428 386.497 0.156708ZM536.567 0.287993C535.751 0.29184 533.444 0.288036 532.118 0.287495C531.975 0.281091 535.62 0.288106 536.567 0.287993ZM289.352 0.104874C287.862 0.11252 291.053 0.12048 290.76 0.109515C290.72 0.10891 289.41 0.104548 289.352 0.104874ZM438.973 0.194188C437.89 0.198655 441.327 0.208487 440.381 0.198434C440.335 0.19802 439.032 0.193942 438.973 0.194188ZM453.982 0.209533C453.161 0.207122 449.658 0.204732 451.021 0.210875C451.233 0.211818 453.92 0.214134 453.982 0.209533ZM25.5404 0.251309C25.0979 0.245185 27.6665 0.239361 28.0342 0.239681C28.1787 0.239906 26.1176 0.259379 25.5404 0.251309ZM375.306 0.150596C374.456 0.15139 372.252 0.147487 371.864 0.152844C372.903 0.152329 375.586 0.161837 375.306 0.150596ZM296.142 0.10757C294.845 0.0940981 292.629 0.0944279 293.177 0.111609C295.625 0.111461 292.875 0.096265 296.142 0.10757ZM391.971 0.148374C391.289 0.14704 390.767 0.160689 390.844 0.161403C391.582 0.168161 392.648 0.154275 391.971 0.148374ZM340.824 0.128871C340.785 0.122307 338.6 0.124095 338.891 0.128479C338.987 0.129949 340.856 0.134181 340.824 0.128871ZM507.952 0.256363C506.951 0.25151 510.009 0.250907 510.913 0.256254C511.353 0.263045 508.079 0.256936 507.952 0.256363ZM410.871 0.165459C410.973 0.15703 407.558 0.159275 408.904 0.167365C409.24 0.169381 410.836 0.168271 410.871 0.165459ZM443.564 0.181956C441.273 0.189371 450.892 0.203975 448.365 0.190397C448.184 0.189433 443.764 0.181346 443.564 0.181956ZM459.273 0.20143C458.878 0.200094 459.075 0.175213 460.711 0.186419C460.925 0.187864 459.921 0.193526 460.096 0.195203C460.2 0.196165 463.756 0.202896 463.92 0.202466C464.096 0.201974 463.888 0.193872 464.067 0.193154C464.269 0.192362 466.458 0.201343 467.604 0.202478C469.765 0.204624 469.998 0.198403 470.175 0.198553C470.691 0.199012 471.559 0.20441 472.605 0.205401C477.879 0.210284 485.945 0.213315 490.126 0.230209C486.405 0.221418 482.86 0.223412 479.158 0.221703C480.242 0.20964 473.712 0.226704 477.531 0.215145C475.772 0.216605 460.569 0.205556 459.278 0.201434C459.276 0.201433 459.275 0.201432 459.273 0.20143ZM276.464 0.0766625C277.431 0.064998 272.472 0.0657643 272.051 0.0796188C272.706 0.0817904 276.344 0.077972 276.464 0.0766625ZM299.342 0.0574884C299.803 0.0556728 300.24 0.0329289 302.655 0.045789C302.657 0.0457901 302.659 0.0457912 302.662 0.0457923C303.368 0.0495407 302.563 0.0547145 302.692 0.056769C302.739 0.0576114 304.942 0.0700596 303.113 0.0710071C300.323 0.072486 302.85 0.0538373 301.363 0.0528661C301.181 0.0527447 298.367 0.063827 298.53 0.0666507C298.547 0.0669763 299.394 0.0647412 299.534 0.0659433C300.062 0.0704592 299.805 0.0775119 299.879 0.0778885C300.123 0.0788515 304.574 0.0687829 305.221 0.0797193C305.432 0.0832025 298.126 0.0877858 297.841 0.0858978C297.661 0.0846874 297.737 0.0647576 297.551 0.0627063C297.455 0.0616745 294.516 0.0678152 294.135 0.0658087C294.024 0.0652255 293.939 0.0646125 293.877 0.0641107C294.322 0.0705095 291.66 0.0688815 291.742 0.0619024C291.788 0.0591648 293.62 0.0615922 293.686 0.0621032C293.714 0.0623199 293.739 0.0626119 293.763 0.0628161C293.383 0.0550607 299.585 0.0583332 298.246 0.0465084C300.044 0.0412598 297.991 0.0628015 299.342 0.0574884ZM307.984 0.0495911C307.798 0.0515689 307.613 0.0535483 307.427 0.0555292C310.574 0.0520808 314.206 0.0639529 317.831 0.0658172C318.751 0.0663123 317.693 0.0532043 318.899 0.0572946C319.865 0.0605778 320.934 0.0727454 320.409 0.0750436C320.281 0.0756227 318.314 0.0670041 317.33 0.0672496C314.423 0.0679985 315.158 0.0791934 314.988 0.0793914C314.8 0.0796053 312.971 0.0710683 311.972 0.0708923C309.461 0.0704783 308.314 0.0766069 304.882 0.0661704C306.863 0.0599541 305.778 0.0438044 307.984 0.0495911ZM425.295 0.151602C425.415 0.146165 427.474 0.152843 428.223 0.152674C428.105 0.158085 426.044 0.15143 425.295 0.151602ZM118.384 0.0317885C117.752 0.0442609 122.493 0.0441889 121.244 0.034893C120.967 0.032808 118.98 0.0314285 118.384 0.0317885ZM139.684 0.0302871C140.319 0.0267833 137.765 0.0182703 137.769 0.027833C137.773 0.0308811 139.603 0.0307297 139.684 0.0302871ZM348.666 0.0839453C348.786 0.0836892 350.531 0.0871645 350.586 0.0877374C351.742 0.0997048 345.999 0.0896139 348.666 0.0839453ZM165.578 0.0155177C163.367 0.0234453 170.021 0.0274067 167.988 0.0169676C167.887 0.0164568 165.684 0.0151304 165.578 0.0155177ZM174.827 0.0140197C174.297 0.0143989 171.944 0.0101784 171.913 0.0139347C171.866 0.0199909 174.559 0.0243707 174.827 0.0140197ZM392.431 0.111649C392.175 0.100396 395.278 0.111219 396.357 0.110691C396.614 0.121857 393.509 0.111105 392.431 0.111649ZM372.843 0.0885365C385.926 0.0893579 383.042 0.111317 372.064 0.0935682C372.048 0.0861795 372.018 0.0885028 372.843 0.0885365ZM389.596 0.102577C389.12 0.109325 387.635 0.106078 386.631 0.104733C386.811 0.099889 388.872 0.10329 389.596 0.102577ZM112.739 0.0177536C113.559 0.0060094 117.193 0.0164861 116.547 0.0215879C116.396 0.0226287 112.437 0.0239753 112.739 0.0177536ZM349.763 0.0744196C349.458 0.0625866 353.386 0.0699813 353.687 0.0727447C354.9 0.0838658 350.081 0.0720664 349.763 0.0744196ZM410.999 0.117569C411.693 0.110087 413.663 0.115972 414.93 0.117185C414.353 0.123521 412.074 0.118642 410.999 0.117569ZM401.851 0.103393C401.931 0.103143 403.698 0.105381 403.777 0.105826C405.225 0.115054 400.226 0.108844 401.851 0.103393ZM19.6415 0.218227C19.7004 0.217817 21.0388 0.213201 21.0854 0.213254C22.28 0.214415 18.2631 0.227997 19.6415 0.218227Z" fill="white"/>
</svg>
