<svg width="18" height="18" viewBox="0 0 18 18" fill="none" xmlns="http://www.w3.org/2000/svg">
<g clip-path="url(#clip0_51_173)">
<path d="M9 18C13.9706 18 18 13.9706 18 9C18 4.02944 13.9706 0 9 0C4.02944 0 0 4.02944 0 9C0 13.9706 4.02944 18 9 18Z" fill="#FF4500"/>
<path d="M14.9871 9.08567C14.9871 8.35611 14.3971 7.77667 13.6781 7.77667C13.3384 7.7762 13.0117 7.90691 12.7661 8.14152C11.8649 7.49767 10.6309 7.07931 9.25754 7.02566L9.85829 4.21449L11.8111 4.63285C11.8327 5.12645 12.2403 5.5235 12.7447 5.5235C13.2597 5.5235 13.6781 5.10514 13.6781 4.58989C13.6781 4.07492 13.2597 3.65649 12.7447 3.65649C12.3799 3.65649 12.0579 3.87109 11.9077 4.18229L9.72969 3.7209C9.66529 3.71007 9.60088 3.7209 9.55792 3.7531C9.50427 3.78531 9.47214 3.83888 9.46152 3.90329L8.79608 7.03628C7.40129 7.07931 6.14586 7.49767 5.23391 8.15228C4.98828 7.91768 4.66155 7.78699 4.32189 7.78749C3.59225 7.78749 3.01288 8.37749 3.01288 9.0965C3.01288 9.63292 3.3347 10.0835 3.78547 10.2875C3.76358 10.4187 3.75281 10.5515 3.75327 10.6845C3.75327 12.7015 6.10311 14.3433 9.00006 14.3433C11.8971 14.3433 14.2469 12.7123 14.2469 10.6845C14.2469 10.5515 14.2362 10.4188 14.2147 10.2875C14.6653 10.0835 14.9871 9.62209 14.9871 9.08567ZM5.99568 10.0191C5.99568 9.5041 6.41404 9.08567 6.92929 9.08567C7.44425 9.08567 7.86268 9.50403 7.86268 10.0191C7.86268 10.5341 7.44432 10.9527 6.92929 10.9527C6.41411 10.9632 5.99568 10.5341 5.99568 10.0191ZM11.2211 12.4977C10.5773 13.1415 9.35408 13.1845 9.00006 13.1845C8.63528 13.1845 7.41212 13.1307 6.77889 12.4977C6.68249 12.4011 6.68249 12.2509 6.77889 12.1543C6.8755 12.0579 7.02568 12.0579 7.12229 12.1543C7.53011 12.5621 8.38848 12.7015 9.00006 12.7015C9.61164 12.7015 10.4807 12.5621 10.8777 12.1543C10.9743 12.0579 11.1245 12.0579 11.2211 12.1543C11.3069 12.2509 11.3069 12.4011 11.2211 12.4977ZM11.0493 10.9633C10.5343 10.9633 10.1159 10.5449 10.1159 10.0299C10.1159 9.51486 10.5343 9.0965 11.0493 9.0965C11.5645 9.0965 11.9829 9.51486 11.9829 10.0299C11.9829 10.534 11.5645 10.9633 11.0493 10.9633Z" fill="white"/>
</g>
<defs>
<clipPath id="clip0_51_173">
<rect width="18" height="18" fill="white"/>
</clipPath>
</defs>
</svg>
