<svg width="13" height="13" viewBox="0 0 13 13" fill="none" xmlns="http://www.w3.org/2000/svg">
<path d="M7.58332 8.0242V4.9757C7.58332 3.27216 7.58332 2.42066 7.08228 2.20833C6.5807 1.99654 5.99082 2.59833 4.81107 3.80354C4.20007 4.42754 3.85178 4.56566 2.98241 4.56566C2.22245 4.56566 1.8422 4.56566 1.56866 4.752C1.00207 5.13875 1.08874 5.89437 1.08874 6.49995C1.08874 7.10554 1.00262 7.86116 1.56974 8.24791C1.84274 8.43425 2.22299 8.43425 2.98295 8.43425C3.85232 8.43425 4.20062 8.57237 4.81162 9.19637C5.99137 10.401 6.58124 11.0034 7.08282 10.7916C7.58387 10.5792 7.58387 9.72775 7.58387 8.02366M9.20832 4.87495C9.54687 5.31912 9.74999 5.88408 9.74999 6.49995C9.74999 7.11583 9.54687 7.68079 9.20832 8.12495M10.8333 3.79162C11.5104 4.53154 11.9167 5.47404 11.9167 6.49995C11.9167 7.52587 11.5104 8.46837 10.8333 9.20829" stroke="white" stroke-linecap="round" stroke-linejoin="round"/>
</svg>
