<svg width="23" height="23" viewBox="0 0 23 23" fill="none" xmlns="http://www.w3.org/2000/svg">
<g opacity="0.6">
<path d="M11.5 11.5V11.5096M15.3333 7.66667V7.67625M7.66667 15.3333V15.3429M7.66667 7.66667V7.67625M15.3333 15.3333V15.3429M11.5 20.125C15.0937 20.125 16.8906 20.125 18.1499 19.2098C18.5566 18.9143 18.9143 18.5566 19.2098 18.1499C20.125 16.8906 20.125 15.0928 20.125 11.5C20.125 7.90721 20.125 6.10937 19.2098 4.85012C18.9143 4.4434 18.5566 4.08572 18.1499 3.79021C16.8906 2.875 15.0928 2.875 11.5 2.875C7.90721 2.875 6.10937 2.875 4.85012 3.79021C4.44348 4.08543 4.0858 4.44279 3.79021 4.84917C2.875 6.10937 2.875 7.90721 2.875 11.5C2.875 15.0928 2.875 16.8906 3.79021 18.1499C4.08572 18.5566 4.4434 18.9143 4.85012 19.2098C6.10937 20.125 7.90721 20.125 11.5 20.125Z" stroke="white" stroke-width="2" stroke-linecap="round" stroke-linejoin="round"/>
</g>
</svg>
