<svg width="1" height="22" viewBox="0 0 1 22" fill="none" xmlns="http://www.w3.org/2000/svg">
<path opacity="0.4" d="M0.830261 20.2977C0.830422 20.2841 0.836795 20.2294 0.838201 20.2057C0.84578 20.2325 0.829632 20.3468 0.830261 20.2977ZM0.021378 17.8665C0.0251017 17.8861 0.028826 17.9058 0.03255 17.9255C0.0330569 17.8696 0.0287661 17.7945 0.0305678 17.7426C0.0308778 17.7341 0.0406947 17.7561 0.0406367 17.736C0.0405827 17.716 0.0279528 17.7198 0.0259058 17.6906C0.0235827 17.6579 0.029324 17.5079 0.0282313 17.456C0.0238086 17.2618 0.0138194 17.0658 0.0178465 16.8712C0.0291397 17.0721 0.0372654 16.8697 0.0328136 16.8134C0.0318396 16.8009 0.00718045 16.8029 0.0127678 16.6013C0.0152781 16.5143 0.0322881 16.541 0.0373812 16.5C0.0397926 16.4807 0.0395679 16.4463 0.0339852 16.3777C0.00956294 16.5421 0.0112753 16.3805 0.0105375 16.2516C0.0103985 16.2294 0.0141941 16.05 0.0132153 15.9707C0.0128702 15.9436 0.000153422 15.9023 -0.000129998 15.8663C-0.000315607 15.8416 0.00669008 15.8228 0.00639194 15.7861C0.00508818 15.6147 0.00490981 15.4462 0.00772616 15.2746C0.0401914 15.3749 0.0218755 15.1958 0.0234712 15.1878C0.0324575 15.1469 0.0345012 15.3319 0.0402479 15.2587C0.0394941 15.1565 0.0387743 15.0543 0.0380889 14.9521C0.0338031 15.0359 0.0109616 14.841 0.0217845 14.8051C-0.00712004 14.8209 0.0486708 14.3392 0.0394379 14.2659C0.0374938 14.2506 0.0228161 14.3506 0.0304416 14.1187C0.0312878 14.0936 0.0398786 14.1031 0.0391391 14.0899C0.038689 14.082 0.0114978 14.0343 0.0269314 13.9834C0.0325652 13.9648 0.0499235 14.0837 0.0440908 13.8227C0.0156058 13.9266 0.0311651 13.4608 0.0387071 13.3751C0.0348757 13.3923 0.0310423 13.4094 0.0272071 13.4265C0.0378034 13.3418 0.0284965 13.3265 0.0291411 13.3074C0.0317285 13.2305 0.041925 13.1248 0.0415774 13.0531C0.0411907 12.9693 0.0240913 12.969 0.0314995 12.8713C0.0275503 12.8944 0.0235983 12.9176 0.0196437 12.9408C0.0210809 12.8733 0.0225301 12.8058 0.023991 12.7383C0.0453011 12.8946 0.025328 12.7046 0.0249638 12.6921C0.0243095 12.6721 0.0332981 12.7008 0.0324242 12.6674C0.0322645 12.6639 0.0235336 12.6689 0.0229977 12.6175C0.021918 12.5099 0.0326688 12.5269 0.0329328 12.4818C0.0329148 12.4776 0.0249815 12.4921 0.0238382 12.4141C0.0202452 12.1662 0.0297747 12.4154 0.030787 12.4249C0.0321094 12.4374 0.0653466 12.3524 0.0520748 12.5629C0.0563358 12.4922 0.0708112 12.4851 0.0712319 12.4771C0.0715774 12.4701 0.0705389 12.3476 0.0701044 12.3409C0.0657232 12.2806 0.0554599 12.3336 0.053797 12.3219C0.0524698 12.3123 0.0664966 12.1647 0.0373947 12.1301C0.0651847 12.0595 0.0616667 12.1708 0.0648538 12.2892C0.0702992 12.3064 0.0768178 12.1764 0.0768615 12.1696C0.0782452 12.0018 0.0551488 12.0947 0.0412239 12.058C0.0339509 12.0388 0.0498139 11.9704 0.0292259 12.0335C0.0286237 11.8813 0.03927 11.9736 0.0410798 11.9638C0.0437348 11.9489 0.0385437 11.8957 0.0393727 11.889C0.0405938 11.8792 0.0471588 11.9132 0.0499624 11.8747C0.0503714 11.8682 0.0391428 11.8061 0.0326658 11.8862C0.0354293 11.7791 0.0252647 11.788 0.0459642 11.7516C0.00828815 11.6779 0.0692217 11.6981 0.0716448 11.669C0.0780555 11.5918 0.0477462 11.6142 0.0463173 11.6101C0.0372022 11.582 0.049821 11.3682 0.0461032 11.3152C0.0673966 11.3361 0.0444952 11.4847 0.0483224 11.518C0.0611352 11.6288 0.0607545 11.3618 0.0870491 11.4423C0.0799304 11.4085 0.0728337 11.3748 0.0657595 11.3411C0.0838015 11.2792 0.090454 11.367 0.0858242 11.2005C0.0711415 11.1733 0.086971 11.3182 0.0754687 11.2891C0.0687102 11.272 0.0682687 11.1755 0.0646492 11.1736C0.0602809 11.1717 0.0645292 11.2589 0.057922 11.2451C0.043669 11.2151 0.0611454 10.8969 0.0663399 11.1392C0.066854 11.0716 0.0960848 11.0368 0.0877258 10.9782C0.08237 10.9403 0.0400048 11.1535 0.0511473 10.8337C0.0647737 10.8269 0.0536264 10.9615 0.0546162 10.965C0.0560689 10.9699 0.0870255 10.9456 0.0885796 10.9413C0.0936636 10.9264 0.0810507 10.5999 0.0971361 10.5309C0.0792881 10.5582 0.0969489 10.2841 0.0920202 10.2543C0.0906597 10.2463 0.0796451 10.276 0.0786248 10.2675C0.0726142 10.2145 0.0934078 10.0712 0.0947292 10.0047C0.0962397 9.93025 0.087029 9.93968 0.0870999 9.93552C0.0880429 9.90278 0.0938574 9.92894 0.0941035 9.90892C0.0944621 9.87868 0.0984972 9.67085 0.0973746 9.66042C0.0970229 9.65737 0.0862527 9.6913 0.0849381 9.64599C0.084717 9.63814 0.0968158 9.64312 0.0934476 9.50894C0.0894736 9.34735 0.0767312 9.62115 0.0649678 9.55401C0.0846241 9.45021 0.066644 9.45358 0.0684886 9.42544C0.0691588 9.41569 0.0854227 9.34316 0.085638 9.26439C0.0872381 9.32092 0.0888639 9.37746 0.0905148 9.434C0.0939753 9.37842 0.0922702 9.27048 0.0959434 9.22469C0.0977275 9.20236 0.109846 9.22076 0.110207 9.17224C0.110214 9.16194 0.0807007 9.12107 0.0923226 9.24819C0.0813791 9.25835 0.0893163 9.19786 0.0866985 9.16981C0.0862839 9.16556 0.0685909 9.14882 0.0803092 9.11299C0.0831979 9.10439 0.134019 9.19806 0.0998769 8.95647C0.098785 8.94869 0.0918528 8.97574 0.09062 8.96814C0.0897873 8.96294 0.0933889 8.90126 0.0925746 8.89445C0.0916979 8.88748 0.0841292 8.91727 0.0828651 8.90897C0.0763843 8.86644 0.105327 8.8106 0.101831 8.89831C0.105759 8.86899 0.109678 8.83968 0.113587 8.81036C0.091974 8.84174 0.108363 8.76431 0.108337 8.72375C0.108306 8.46377 0.0919495 8.63786 0.0856134 8.59317C0.0755423 8.52127 0.110373 8.57618 0.101399 8.46946C0.100577 8.45959 0.0832356 8.58859 0.0960729 8.3367C0.0960192 8.37387 0.0959727 8.41105 0.0959335 8.44823C0.116396 8.42679 0.096813 8.31398 0.0967171 8.30531C0.0957028 8.20639 0.101682 8.27327 0.0940531 8.12638C0.0933734 8.11326 0.0987712 8.08469 0.0968387 8.05664C0.0889297 7.94037 0.0879701 8.21007 0.0797808 8.21744C0.075738 8.22093 0.0821794 7.93089 0.0842339 7.92094C0.0932254 7.87866 0.0853886 8.05242 0.0962379 8.0193C0.10002 8.00721 0.100315 7.59383 0.105878 7.51089C0.112266 7.41519 0.138968 7.3721 0.109859 7.37149C0.138954 7.34448 0.119895 7.32063 0.120339 7.30838C0.125809 7.16039 0.126072 7.16011 0.125864 7.03319C0.125835 7.00517 0.134797 6.98151 0.133552 6.97159C0.132801 6.96583 0.123496 6.97661 0.121265 6.94835C0.118235 6.90909 0.132347 6.67316 0.137606 6.65562C0.142887 6.63809 0.137755 6.75526 0.146323 6.73426C0.14879 6.64945 0.14839 6.56811 0.150945 6.48274C0.152029 6.44728 0.157277 6.4655 0.157691 6.45018C0.157875 6.44366 0.155396 6.3212 0.153251 6.32639C0.148198 6.33855 0.143827 6.71667 0.135923 6.6171C0.134412 6.59789 0.148795 6.53002 0.132772 6.54082C0.143397 6.20299 0.154165 5.86518 0.165044 5.52735C0.171875 5.72145 0.157259 5.93988 0.154017 6.14319C0.153568 6.17105 0.150116 6.26525 0.158206 6.2538C0.163699 6.08092 0.16419 5.86599 0.172672 5.69999C0.172945 5.69467 0.179345 5.71418 0.180834 5.69428C0.183583 5.65708 0.175239 5.53597 0.178501 5.5156C0.179216 5.51212 0.186651 5.58104 0.192736 5.56009C0.208272 5.50628 0.176556 5.49263 0.177965 5.44637C0.179109 5.4106 0.199404 5.1702 0.191179 5.11034C0.182478 5.04668 0.181376 5.28749 0.173407 5.26971C0.168741 5.10677 0.181509 4.94178 0.184073 4.78782C0.184115 4.78511 0.17722 4.80866 0.177166 4.77431C0.177087 4.71453 0.186385 4.69883 0.188491 4.66974C0.190741 4.63836 0.192125 4.52739 0.19568 4.51255C0.19614 4.51066 0.204324 4.53314 0.204495 4.53655C0.206996 4.58489 0.195238 4.60206 0.194983 4.60646C0.194162 4.62299 0.198152 4.63922 0.197546 4.6543C0.196541 4.67912 0.192165 4.69279 0.19104 4.72555C0.190251 4.74816 0.19858 4.72634 0.197726 4.74812C0.197415 4.75612 0.177413 4.84238 0.195626 4.85043C0.201427 4.85292 0.224321 4.1475 0.221663 4.07699C0.218181 4.13747 0.214676 4.19795 0.211149 4.25843C0.219075 4.13561 0.208892 3.98807 0.229373 3.97762C0.24148 3.52217 0.253955 3.06672 0.266763 2.61126C0.2703 2.52994 0.280416 2.57453 0.280381 2.44073C0.276012 2.47531 0.271602 2.50988 0.267152 2.54446C0.271427 2.47588 0.283757 2.17201 0.282794 2.12283C0.282668 2.11646 0.273226 2.10762 0.274462 2.03169C0.275565 1.96431 0.282948 1.95349 0.285233 1.91747C0.287132 1.88722 0.286184 1.85326 0.286808 1.84428C0.287298 1.8374 0.291635 1.83467 0.2928 1.8181C0.296419 1.76578 0.283433 1.80819 0.298425 1.75625C0.298627 1.76889 0.298831 1.78154 0.299038 1.79418C0.302626 1.73105 0.310801 1.64478 0.31164 1.73779C0.311791 1.75378 0.30804 1.74004 0.307762 1.75197C0.297494 2.21899 0.314288 1.84606 0.311764 1.6824C0.318724 1.64037 0.320617 1.4048 0.321979 1.39697C0.323866 1.38609 0.32756 1.4264 0.332705 1.37356C0.333755 1.36244 0.33772 1.04748 0.342553 1.1609C0.343566 1.1843 0.338699 1.3353 0.338134 1.37171C0.351957 1.28606 0.339147 1.08528 0.340249 1.0627C0.344021 0.971628 0.346588 1.23767 0.352269 1.03249C0.356603 0.874723 0.345829 1.02284 0.343892 0.962164C0.342895 0.928066 0.355069 0.749519 0.344456 0.75437C0.344787 0.693087 0.34947 0.728954 0.350046 0.721388C0.350545 0.713989 0.350251 0.593494 0.353314 0.55438C0.353687 0.549635 0.358626 0.564573 0.359169 0.559668C0.360114 0.550127 0.361638 0.43392 0.361315 0.429251C0.361083 0.426273 0.355924 0.453987 0.355088 0.442595C0.354134 0.429319 0.357835 0.317505 0.356719 0.311337C0.355017 0.302629 0.352968 0.44067 0.348482 0.417669C0.35131 0.354036 0.350564 0.250366 0.34779 0.208363C0.348632 0.218658 0.347199 0.280352 0.346244 0.301769C0.33926 0.291687 0.343019 0.159214 0.347391 0.204502C0.345144 0.17572 0.343025 0.195372 0.340637 0.179157C0.340037 0.174908 0.341034 0.133999 0.34005 0.126118C0.339843 0.125097 0.33599 0.167297 0.334801 0.158848C0.332658 0.143551 0.336933 0.0195293 0.337886 0.00938034C0.340577 -0.0191803 0.33989 0.0819321 0.342601 0.0903664C0.343039 0.0915623 0.35109 0.00556564 0.351599 0.00426102C0.357072 -0.000766754 0.350695 0.0949287 0.355862 0.0839882C0.357497 0.0603218 0.359119 0.0366554 0.360728 0.012989C0.363362 0.104275 0.356743 0.273161 0.361604 0.316708C0.362965 0.181366 0.366628 0.0397167 0.379112 0.0400124C0.384382 0.0401115 0.386358 0.0984974 0.387772 0.096241C0.392791 0.0876331 0.389055 0.006567 0.389389 0.00358963C0.389728 0.00112724 0.390032 -1.90735e-06 0.390308 0C0.390308 0 0.390308 0 0.390308 0C0.393081 3.8147e-06 0.393012 0.115553 0.394233 0.121334C0.396407 0.131058 0.406787 0.079628 0.408857 0.0797081C0.409238 0.0814991 0.410301 0.163786 0.414407 0.136021C0.418532 0.107927 0.419529 0.0359077 0.419947 0.0333824C0.422295 0.0196266 0.422757 0.145609 0.424055 0.149364C0.424715 0.151346 0.42957 0.0836945 0.430743 0.0817223C0.431927 0.0800381 0.43395 0.131451 0.43752 0.151714C0.440175 0.166824 0.442681 0.122833 0.443047 0.130566C0.443288 0.136093 0.442277 0.255129 0.442732 0.260983C0.443407 0.269699 0.447011 0.241817 0.447824 0.245876C0.449004 0.251635 0.447511 0.290071 0.448808 0.285069C0.449854 0.281311 0.462276 0.13229 0.465235 0.133251C0.470417 0.134958 0.457948 0.292767 0.478993 0.145924C0.479127 0.144901 0.477714 0.10915 0.477843 0.108158C0.481591 0.0860977 0.487418 0.200689 0.486366 0.0605736C0.493084 0.321211 0.494221 0.0930138 0.502974 0.131573C0.506381 0.146465 0.508243 0.247503 0.508766 0.247974C0.513087 0.238155 0.509546 0.205965 0.511618 0.195019C0.51275 0.188997 0.517887 0.279402 0.520783 0.259052C0.522262 0.248533 0.521033 0.152573 0.521304 0.148609C0.523811 0.110632 0.527161 0.157206 0.529085 0.148861C0.530369 0.14332 0.529956 0.085413 0.530178 0.0839043C0.53063 0.0814648 0.53671 0.160091 0.538802 0.176472C0.5404 0.188925 0.542173 0.142185 0.542899 0.150875C0.547304 0.203226 0.538831 0.314587 0.551282 0.207272C0.552038 0.200722 0.551176 0.160126 0.551327 0.158932C0.554834 0.133846 0.556167 0.20859 0.55955 0.221958C0.565387 0.244917 0.560699 0.137489 0.565913 0.226826C0.568459 0.159811 0.567652 0.122461 0.565429 0.0440407C0.571487 0.261181 0.587586 0.337826 0.582517 0.0967445C0.583758 0.173435 0.591536 0.164927 0.59215 0.187801C0.592546 0.20203 0.586774 0.313223 0.603754 0.262241C0.605858 0.255846 0.601479 0.188301 0.606526 0.209454C0.609116 0.371565 0.609542 0.212894 0.61011 0.212727C0.62073 0.214827 0.621777 0.610945 0.624495 0.679007C0.627852 0.757988 0.638809 0.828176 0.639279 0.845343C0.640714 0.901829 0.634805 0.854952 0.633385 0.867582C0.631928 0.880383 0.645059 1.041 0.6448 1.04902C0.643518 1.08014 0.636961 1.04856 0.636756 1.05179C0.634119 1.09032 0.643765 1.30603 0.6438 1.36642C0.647704 1.36456 0.645055 1.2433 0.653157 1.31901C0.66272 1.40716 0.645471 1.4122 0.644743 1.41451C0.654274 1.81841 0.663458 2.22231 0.672291 2.6262C0.683018 2.62117 0.669012 2.35711 0.670306 2.3511C0.677634 2.31582 0.687844 2.7619 0.685071 2.81662C0.686544 2.77505 0.68798 2.73348 0.689378 2.69191C0.703658 2.76289 0.690817 2.91999 0.698763 3.02266C0.701387 3.05582 0.704939 2.99213 0.705301 2.99345C0.71123 3.03073 0.708739 3.09054 0.700894 3.04582C0.709514 3.13682 0.702003 3.12353 0.703013 3.19336C0.703077 3.19695 0.707719 3.16697 0.711218 3.22223C0.712861 3.24812 0.716056 3.38619 0.721266 3.40468C0.723495 3.41228 0.742839 3.34224 0.724519 3.33359C0.72965 3.18341 0.715169 3.28561 0.714206 3.22726C0.714092 3.21832 0.724561 3.2389 0.716321 3.09198C0.734798 3.11996 0.725715 3.28915 0.72855 3.31815C0.734644 3.37796 0.737573 3.13149 0.722559 3.08627C0.736953 3.1074 0.723973 3.06879 0.723166 3.01384C0.722253 2.95371 0.726993 2.97992 0.726173 2.94738C0.723945 2.85838 0.715377 2.89528 0.722064 2.82191C0.697308 2.89344 0.715505 2.69631 0.720631 2.63887C0.724459 2.73234 0.728304 2.8258 0.732164 2.91926C0.733429 2.91392 0.734691 2.90858 0.735951 2.90323C0.736422 2.92785 0.73689 2.95247 0.737355 2.97709C0.735891 2.97314 0.734428 2.9692 0.732967 2.96525C0.745224 3.09219 0.736059 3.12317 0.736193 3.13352C0.738506 3.26677 0.742523 3.42068 0.745886 3.5554C0.746372 3.57561 0.75547 3.56174 0.751796 3.70907C0.750598 3.75606 0.742093 3.71169 0.744499 3.76496C0.766361 3.83159 0.75021 3.83033 0.750645 3.85014C0.752027 3.90699 0.757955 3.94173 0.758142 3.94699C0.760675 4.01722 0.762335 4.1201 0.764973 4.19725C0.765092 4.1987 0.770546 4.15855 0.769874 4.20866C0.769738 4.22627 0.745576 4.38413 0.757724 4.52212C0.758831 4.48623 0.759917 4.45033 0.760983 4.41444C0.759291 4.45665 0.773186 4.75237 0.779228 4.68006C0.782825 4.63574 0.762 4.52752 0.779262 4.51566C0.776403 4.61407 0.797111 5.15757 0.793773 5.19988C0.79329 5.20573 0.78649 5.16973 0.785907 5.17781C0.785462 5.18407 0.789639 5.30857 0.787671 5.3251C0.786501 5.33494 0.781608 5.27992 0.779533 5.2844C0.778085 5.28831 0.778724 5.44379 0.786567 5.45266C0.782695 5.41448 0.783067 5.30717 0.790688 5.36345C0.791646 5.37069 0.787544 5.40821 0.788744 5.41699C0.799902 5.49859 0.792266 5.25475 0.791483 5.217C0.804608 5.37018 0.798384 5.6071 0.80862 5.78458C0.80362 5.8563 0.796414 5.67826 0.792729 5.7594C0.784957 5.92773 0.802701 5.80419 0.803619 5.80942C0.811195 5.85123 0.77847 5.99364 0.805626 5.99372C0.802792 6.05474 0.798928 6.03499 0.804254 6.12111C0.805923 6.10979 0.807589 6.09845 0.80925 6.08712C0.827247 6.18274 0.790866 6.38511 0.787342 6.36995C0.77831 6.32916 0.789268 6.22377 0.788762 6.21477C0.787995 6.20144 0.759567 6.16462 0.781635 6.01881C0.762035 5.95911 0.773273 6.24991 0.758203 6.11759C0.761955 6.20695 0.754794 6.57459 0.76402 6.62751C0.765225 6.63382 0.783919 6.60441 0.77568 6.69524C0.77173 6.73835 0.769781 6.63438 0.765734 6.65411C0.753423 6.71482 0.774525 7.54052 0.777504 7.69737C0.777673 7.70754 0.771315 7.70381 0.771513 7.71381C0.772108 7.74454 0.783149 7.85654 0.781004 7.91154C0.791142 7.79758 0.79528 8.01889 0.794779 8.07519C0.794012 8.16064 0.782591 8.15535 0.780674 8.19226C0.773166 8.33454 0.803411 8.55498 0.77913 8.66551C0.804624 8.65946 0.768955 8.85668 0.76964 8.9464C0.770223 9.01667 0.788612 9.11864 0.797916 9.02378C0.79821 9.14509 0.804606 9.27278 0.807567 9.38658C0.808058 9.40539 0.799984 9.3795 0.801061 9.41159C0.801214 9.4145 0.80888 9.41852 0.810003 9.44608C0.819367 9.67358 0.80177 9.56288 0.797467 9.60545C0.795047 9.62927 0.793901 9.64685 0.7936 9.65975C0.790656 9.52715 0.785958 9.37419 0.785285 9.33329C0.76888 9.36818 0.791743 9.6272 0.788012 9.70305C0.787873 9.70569 0.778408 9.69652 0.778369 9.69919C0.77837 9.69925 0.778371 9.69931 0.778371 9.69936C0.777945 9.72779 0.783243 9.90884 0.794109 9.87157C0.797008 9.86157 0.796118 9.77823 0.794031 9.67939C0.796416 9.70614 0.806692 9.68617 0.807191 9.69089C0.813041 9.74814 0.804322 9.88838 0.803438 9.93812C0.803253 9.94949 0.810027 9.94868 0.810063 9.95055C0.809018 9.99579 0.78941 9.97723 0.809914 10.0236C0.786575 10.1056 0.804704 9.87008 0.789215 9.88668C0.777366 9.89943 0.788792 10.4225 0.808112 10.4209C0.806065 10.4227 0.803574 10.4299 0.800799 10.4447C0.794637 10.4774 0.798003 10.623 0.801818 10.6481C0.802561 10.6524 0.821408 10.6507 0.821634 10.6559C0.822225 10.6691 0.809052 10.847 0.820874 10.9135C0.823204 10.8776 0.825523 10.8417 0.82783 10.8058C0.83007 11.0226 0.835418 10.9891 0.840399 10.9168C0.840415 10.9132 0.841102 10.9097 0.841145 10.9063C0.844797 10.8503 0.848089 10.7785 0.84957 10.7774C0.855239 10.7733 0.862203 11.1411 0.843763 11.0703C0.841259 11.0605 0.847465 10.8903 0.835685 10.9746C0.833619 10.9893 0.838252 11.0986 0.836912 11.1043C0.827984 11.1427 0.813531 10.9041 0.800704 10.9333C0.813695 10.9912 0.807775 11.0655 0.811576 11.1319C0.8133 11.1622 0.822959 11.1696 0.823173 11.1733C0.826172 11.229 0.815828 11.1978 0.81624 11.2164C0.816487 11.2263 0.838925 11.3361 0.809122 11.3154C0.833928 11.6772 0.831826 11.4155 0.828147 11.1935C0.839541 11.2637 0.835563 11.4012 0.838599 11.4628C0.839704 11.485 0.849513 11.4719 0.851834 11.5093C0.85666 11.5862 0.848298 11.9537 0.846253 12.0494C0.842244 11.9906 0.83144 12.0078 0.832531 12.0532C0.833631 12.0985 0.847974 12.0604 0.849612 12.0693C0.85133 12.0788 0.846014 12.2917 0.848158 12.3271C0.841659 12.1668 0.830994 12.203 0.830778 12.339C0.827478 12.3193 0.82418 12.2997 0.820886 12.28C0.825894 12.3597 0.810173 12.5274 0.815449 12.5735C0.8163 12.5807 0.825417 12.5547 0.825894 12.5588C0.830106 12.5992 0.821477 12.7368 0.824684 12.7432C0.827365 12.7486 0.834801 12.6899 0.838777 12.7117C0.839618 12.7163 0.827387 12.7728 0.830814 12.8285C0.832079 12.8492 0.840824 12.8368 0.841367 12.842C0.845878 12.8854 0.830866 12.8597 0.833721 12.9391C0.835826 12.9972 0.850654 13.0405 0.846292 13.1208C0.863302 12.8571 0.856873 13.0787 0.863163 13.189C0.864164 13.2067 0.880193 13.1915 0.872969 13.2971C0.842521 13.0724 0.857925 13.3611 0.857912 13.4202C0.85783 13.4234 0.84718 13.4245 0.847159 13.4535C0.847181 13.456 0.854367 13.4524 0.85506 13.4794C0.861592 13.7347 0.852597 13.5714 0.845721 13.6199C0.842787 13.6406 0.853599 13.7647 0.854004 13.7982C0.854065 13.8059 0.846527 13.8023 0.846956 13.8321C0.847732 13.8847 0.855958 13.9319 0.856748 13.9666C0.856803 13.9707 0.844913 13.9708 0.849047 14.0367C0.850202 14.0552 0.854518 14.076 0.857829 14.0497C0.868705 13.9625 0.84851 13.7971 0.859225 13.6985C0.868967 13.6086 0.871333 13.892 0.871446 13.9068C0.871508 13.9122 0.865352 13.8568 0.864444 13.9131C0.863685 13.9611 0.884637 14.0489 0.880476 14.1205C0.880171 14.1259 0.862959 14.1831 0.861927 14.1805C0.861175 14.1781 0.857025 14.0902 0.85203 14.103C0.851462 14.1045 0.851805 14.1603 0.848072 14.1676C0.843532 14.1765 0.798683 14.2006 0.797592 14.2125C0.794908 14.2431 0.805095 14.2232 0.804448 14.243C0.803097 14.2854 0.790232 14.4326 0.805857 14.4373C0.80671 14.413 0.80756 14.3887 0.808408 14.3644C0.81044 14.4997 0.816905 14.442 0.819895 14.4612C0.823129 14.4818 0.809383 14.476 0.808228 14.5216C0.80798 14.5315 0.811385 14.7223 0.817145 14.7188C0.807668 14.6133 0.82477 14.6524 0.825061 14.6476C0.826113 14.6291 0.816514 14.6055 0.816631 14.5807C0.817595 14.4063 0.833161 14.5822 0.836902 14.541C0.838157 14.5268 0.829938 14.4986 0.830335 14.4926C0.831618 14.473 0.842256 14.4727 0.841352 14.4597C0.839253 14.4293 0.824319 14.4648 0.823526 14.4624C0.814025 14.4352 0.825383 14.3287 0.841976 14.395C0.847733 14.3552 0.827831 14.3505 0.835669 14.3189C0.851176 14.2562 0.847479 14.3502 0.850184 14.3757C0.859944 14.467 0.852408 14.4941 0.855444 14.6235C0.856517 14.6701 0.86638 14.7252 0.86698 14.7469C0.86737 14.7605 0.833972 14.889 0.886829 14.8928C0.881872 14.9428 0.847229 15.0212 0.84894 15.0727C0.850505 15.1189 0.869194 15.1042 0.869929 15.1085C0.871084 15.1151 0.869743 15.171 0.872434 15.1899C0.875614 15.212 0.882739 15.201 0.885737 15.2361C0.893176 15.3236 0.87403 15.3213 0.872806 15.3303C0.85864 15.4347 0.885774 15.389 0.888006 15.4121C0.890081 15.4337 0.880105 15.7358 0.887064 15.7993C0.883189 15.7735 0.879314 15.7476 0.875438 15.7217C0.863543 15.768 0.883111 15.8171 0.861662 15.818C0.896307 15.8274 0.873268 15.923 0.874187 15.9517C0.874566 15.963 0.880469 15.9621 0.880737 15.9763C0.88183 16.0316 0.877218 16.1563 0.880226 16.1863C0.893202 16.3161 0.914434 15.9843 0.915671 15.9581C0.915366 16.0104 0.923324 16.3063 0.939896 16.1703C0.942453 16.1493 0.926914 16.112 0.926298 16.1002C0.922237 16.0203 0.936188 16.0831 0.937504 16.0769C0.939629 16.0662 0.926145 16.0136 0.927731 15.9998C0.928238 15.9951 0.940855 16.0249 0.941034 15.9487C0.953288 15.9862 0.943534 16.2004 0.946402 16.2285C0.947426 16.2385 0.973487 16.1758 0.948229 16.3591C0.950649 16.357 0.95307 16.3549 0.95549 16.3527C0.955985 16.4018 0.956472 16.4509 0.956952 16.5C0.957469 16.553 0.957905 16.606 0.958257 16.659C0.952719 16.6479 0.94167 16.5906 0.943848 16.6628C0.945087 16.7043 0.957604 16.6736 0.957952 16.6774C0.962244 16.7146 0.951421 17.3747 0.949085 17.5027C0.94873 17.5462 0.955769 17.6675 0.955686 17.6767C0.955443 17.732 0.943966 17.9279 0.944095 17.9669C0.944244 17.9913 0.954848 17.9681 0.953728 17.9899C0.952669 18.0102 0.943729 17.9892 0.943147 17.9952C0.938646 18.045 0.937911 18.4236 0.925149 18.5135C0.93027 18.4586 0.921296 18.1844 0.914188 18.1899C0.913236 18.1911 0.903935 18.2577 0.90696 18.2715C0.898136 18.2942 0.920095 18.3722 0.913663 18.4146C0.912943 18.4194 0.899907 18.4005 0.8947 18.4762C0.892941 18.5022 0.900906 18.5705 0.886419 18.6392C0.888602 18.7387 0.848018 19.2617 0.859092 19.2976C0.859735 19.2987 0.868176 19.225 0.871096 19.2748C0.874889 19.3409 0.853441 19.2815 0.847386 19.3586C0.846587 19.3702 0.837479 19.5847 0.838411 19.5918C0.847838 19.6567 0.864088 19.4693 0.865485 19.4719C0.869133 19.4785 0.862177 19.6342 0.86082 19.6405C0.859583 19.6466 0.849654 19.5195 0.84722 19.6722C0.850331 19.6547 0.853451 19.6372 0.856581 19.6197C0.856269 19.6915 0.843893 19.6983 0.842142 19.7157C0.836709 19.7698 0.850534 19.8283 0.823445 19.9149C0.816326 19.9378 0.812352 19.8998 0.811305 19.9026C0.802031 19.9301 0.820203 19.9652 0.802523 20.0066C0.80124 20.0097 0.798001 19.9134 0.787835 20.0817C0.789962 20.0701 0.792096 20.0585 0.794236 20.047C0.796073 20.0707 0.786984 20.2411 0.784676 20.264C0.778152 20.331 0.772249 20.2726 0.769055 20.3399C0.785306 20.2967 0.772788 20.5014 0.762598 20.4896C0.774457 20.5182 0.751386 20.692 0.745143 20.7737C0.741236 20.8253 0.738579 20.9305 0.736615 20.9469C0.734293 20.9668 0.726494 20.9608 0.721955 20.9968C0.720766 21.0071 0.718164 21.1144 0.702777 21.2086C0.69977 21.2268 0.68422 21.2651 0.683513 21.2312C0.682126 21.1732 0.700501 21.0633 0.692447 21.0647C0.683797 21.0664 0.678818 21.2143 0.674859 21.2541C0.65716 21.438 0.656539 21.3318 0.653584 21.3365C0.6467 21.3488 0.640539 21.4493 0.639723 21.4534C0.636336 21.4708 0.636166 21.3996 0.632553 21.3986C0.62782 21.3973 0.614078 21.4941 0.613798 21.4721C0.613258 21.4406 0.625112 21.3516 0.62513 21.3459C0.624348 21.2725 0.607822 21.3732 0.601328 21.4009C0.599305 21.4093 0.598121 21.3758 0.597313 21.3828C0.58528 21.4892 0.611504 21.4052 0.60646 21.476C0.601959 21.5392 0.59916 21.4579 0.59859 21.4603C0.598025 21.4634 0.594039 21.539 0.591114 21.5508C0.589959 21.5566 0.584816 21.3603 0.57783 21.3685C0.576925 21.4311 0.575873 21.4938 0.574668 21.5564C0.566874 21.5613 0.5759 21.4712 0.575483 21.4619C0.574528 21.4432 0.568611 21.4955 0.566246 21.4932C0.564768 21.492 0.561015 21.4306 0.556963 21.4861C0.555635 21.5052 0.559669 21.5452 0.552119 21.6146C0.552381 21.373 0.542832 21.5404 0.540188 21.5475C0.537407 21.5545 0.533359 21.4392 0.531576 21.5792C0.516805 21.5852 0.527001 21.5761 0.525121 21.5364C0.522694 21.4876 0.515938 21.6003 0.522476 21.4221C0.514935 21.4323 0.513724 21.5754 0.513057 21.583C0.512491 21.5896 0.509475 21.5577 0.508194 21.5691C0.493854 21.7033 0.500683 21.6111 0.49217 21.65C0.491365 21.6534 0.488184 21.7803 0.487167 21.6837C0.484932 21.5078 0.495592 21.4343 0.473131 21.4047C0.464433 21.5348 0.479052 21.6925 0.479026 21.7321C0.479511 21.7926 0.475405 21.7299 0.474307 21.7374C0.473965 21.7399 0.474568 21.7921 0.474267 21.7928C0.460164 21.83 0.472308 21.5605 0.469414 21.4757C0.467077 21.4984 0.464813 21.5212 0.462622 21.5439C0.462224 21.5131 0.461825 21.4822 0.461425 21.4513C0.457905 21.5983 0.459809 21.4565 0.445437 21.4199C0.442185 21.4116 0.449187 21.5082 0.438654 21.3981C0.43817 21.4793 0.435032 21.4534 0.440201 21.527C0.435026 21.5251 0.425156 21.3595 0.420499 21.2942C0.420073 21.5249 0.436657 21.3934 0.431062 21.5928C0.438224 21.6297 0.434877 21.5346 0.436125 21.5423C0.440428 21.5702 0.436241 21.6354 0.450217 21.7142C0.452429 21.727 0.458002 21.6728 0.458752 21.7531C0.45879 21.7619 0.454365 21.8131 0.454017 21.8124C0.449904 21.8056 0.450505 21.755 0.448753 21.7529C0.447083 21.7509 0.449124 21.8074 0.448684 21.8076C0.443693 21.8093 0.445808 21.7605 0.444359 21.7676C0.440886 21.7829 0.435759 21.9861 0.431827 21.7209C0.443241 21.9412 0.438256 21.7491 0.433947 21.6633C0.432832 21.6415 0.429438 21.6359 0.427466 21.6048C0.424905 21.5647 0.425298 21.5177 0.424138 21.497C0.422778 21.4747 0.418197 21.6015 0.415424 21.4181C0.409846 21.5114 0.423396 21.6762 0.421059 21.7679C0.417547 21.9528 0.40386 21.639 0.401378 21.6063C0.400742 21.5976 0.397428 21.6268 0.396934 21.621C0.396053 21.6115 0.391221 21.4333 0.386536 21.4158C0.381818 21.3982 0.389334 21.481 0.385491 21.4865C0.383027 21.4902 0.368501 21.2753 0.371691 21.3917C0.374213 21.4719 0.391365 21.6196 0.381463 21.6445C0.374831 21.5266 0.368244 21.4087 0.361718 21.2908C0.359843 21.3553 0.358383 21.4199 0.35736 21.4844C0.348625 21.3521 0.34848 21.2377 0.334797 21.112C0.33472 21.414 0.316149 21.0139 0.313807 21.0095C0.312329 21.008 0.305518 21.1269 0.304451 21.146C0.292788 21.0407 0.269828 20.7206 0.263892 20.9079C0.265682 20.8739 0.250125 20.7915 0.249366 20.7926C0.241878 20.8031 0.259764 20.9826 0.250683 20.9533C0.240013 20.9194 0.247666 20.8719 0.243169 20.8197C0.220107 20.5518 0.179902 20.6253 0.167037 20.3566C0.165736 20.362 0.164443 20.3673 0.163156 20.3727C0.144058 20.0807 0.127967 19.7887 0.1147 19.4968C0.0911516 19.3825 0.0632913 19.0785 0.0582327 18.9292C0.0570591 18.8991 0.0600306 18.7515 0.0613622 18.7404C0.0637666 18.7197 0.069999 18.8332 0.073927 18.7819C0.0745447 18.7711 0.068665 18.5212 0.0587537 18.539C0.0586037 18.567 0.0675073 18.6547 0.0656204 18.669C0.0510155 18.7698 0.0366497 17.9993 0.0295869 17.9611C0.0264408 17.9782 0.023315 17.9953 0.0202102 18.0123C0.0205118 17.9637 0.0209018 17.9151 0.021378 17.8665ZM0.820777 20.1006C0.827374 20.1298 0.815799 20.2029 0.815063 20.2461C0.814276 20.3058 0.83755 20.4073 0.809596 20.3636C0.813692 20.2759 0.817414 20.1883 0.820777 20.1006ZM0.908253 18.8193C0.899964 18.878 0.879592 18.8324 0.890997 18.7843C0.892267 18.7789 0.919449 18.7397 0.908253 18.8193ZM0.866496 19.4356C0.866365 19.4331 0.869752 19.3823 0.870175 19.3805C0.881187 19.335 0.87076 19.4881 0.866496 19.4356ZM0.936163 16.4582C0.93726 16.523 0.960294 16.4761 0.950809 16.4358C0.950207 16.4333 0.936109 16.454 0.936163 16.4582ZM0.935554 16.5043C0.914947 16.5546 0.956528 16.6559 0.952468 16.5754C0.952066 16.5676 0.936568 16.502 0.935554 16.5043ZM0.889515 19.0288C0.882985 19.0222 0.889174 18.9615 0.892042 18.9357C0.898349 18.9364 0.889985 19.0034 0.889515 19.0288ZM0.939501 17.4912C0.933544 17.4887 0.929559 17.6995 0.937044 17.7138C0.934533 17.6805 0.944995 17.4937 0.939501 17.4912ZM0.938282 16.9507C0.93718 16.956 0.938131 17.0289 0.943591 17.0267C0.951117 16.9912 0.943333 16.9266 0.938282 16.9507ZM0.940152 15.8763C0.938769 15.8723 0.903981 15.9269 0.926752 15.7977C0.930085 15.7787 0.939289 15.8464 0.94053 15.8397C0.94295 15.8256 0.944071 15.8144 0.944262 15.8055C0.94724 15.8656 0.948676 15.9282 0.946568 15.9342C0.936611 15.9626 0.940731 15.8781 0.940152 15.8763ZM0.913166 15.3123C0.907465 15.2999 0.910307 15.2207 0.912593 15.2026C0.913024 15.1996 0.927963 15.213 0.926753 15.1774C0.925756 15.1488 0.910611 15.1915 0.912904 15.1358C0.9152 15.0794 0.92628 15.1547 0.927043 15.1498C0.928043 15.1432 0.920946 15.056 0.929821 15.0587C0.936398 15.0607 0.932226 15.1541 0.933683 15.1772C0.935559 15.2068 0.946415 15.1709 0.944197 15.2204C0.942811 15.2514 0.923497 15.2342 0.922541 15.2408C0.921772 15.2462 0.933128 15.3548 0.913226 15.3121C0.913206 15.3121 0.913186 15.3122 0.913166 15.3123ZM0.943384 15.7892C0.944043 15.7937 0.944398 15.799 0.944262 15.8055C0.943991 15.8 0.943679 15.7946 0.943384 15.7892ZM0.825678 19.9307C0.832194 19.9002 0.832016 19.9909 0.823872 20.0252C0.819182 20.0258 0.824681 19.9356 0.825678 19.9307ZM0.927571 15.7334C0.932263 15.644 0.939028 15.7097 0.943384 15.7892C0.93971 15.764 0.926001 15.7634 0.927571 15.7334ZM0.90696 18.2715C0.908434 18.2677 0.910617 18.2653 0.914084 18.265C0.909972 18.2749 0.907916 18.2758 0.90696 18.2715ZM0.919705 18.0629C0.911093 17.9914 0.907318 18.1367 0.914905 18.1358C0.917798 18.1353 0.920057 18.0658 0.919705 18.0629ZM0.937247 16.3751C0.936146 16.3817 0.902143 16.2801 0.927675 16.4276C0.931666 16.3489 0.935382 16.4319 0.938357 16.4307C0.946914 16.4275 0.938656 16.2952 0.942333 16.266C0.927022 16.243 0.940873 16.3536 0.937247 16.375C0.937247 16.375 0.937247 16.3751 0.937247 16.3751ZM0.917912 14.2957C0.92686 14.3136 0.924261 14.3705 0.9239 14.4088C0.914946 14.3909 0.917562 14.334 0.917912 14.2957ZM0.772952 4.25734C0.784969 4.52019 0.761294 4.55424 0.76525 4.31374C0.765348 4.30903 0.770142 4.24138 0.772952 4.25734ZM0.816221 6.51321C0.804414 6.53797 0.800907 6.45601 0.804904 6.40217C0.805813 6.38999 0.817225 6.34495 0.820681 6.39638C0.805903 6.39474 0.80173 6.47428 0.816221 6.51321ZM0.917312 15.6829C0.906673 15.6568 0.91408 15.5767 0.915587 15.5345C0.924359 15.5602 0.920571 15.6455 0.917312 15.6829ZM0.780142 5.12108C0.779896 5.14878 0.790071 5.16749 0.790778 5.16271C0.794009 5.14129 0.784974 5.08951 0.780142 5.12108ZM0.916018 15.9415C0.909685 15.9452 0.903462 15.839 0.919117 15.8317C0.918015 15.8543 0.919995 15.9389 0.916018 15.9415ZM0.913516 14.368C0.910394 14.3845 0.904323 14.2992 0.907374 14.2734C0.914057 14.2754 0.915547 14.3572 0.913516 14.368ZM0.793152 5.56713C0.79281 5.59195 0.793846 5.65393 0.798082 5.66079C0.803382 5.66932 0.799657 5.57843 0.793152 5.56713ZM0.668536 0.950834C0.669531 0.947704 0.680565 1.0437 0.67981 1.08637C0.678218 1.16741 0.66782 0.954231 0.668536 0.950834ZM0.769398 4.85882C0.776718 4.78058 0.769874 4.86744 0.779357 4.86402C0.778495 4.81137 0.775966 4.6804 0.768693 4.77045C0.767279 4.78799 0.769474 4.83427 0.769398 4.85882ZM0.767773 4.93099C0.771055 4.93938 0.782158 4.99577 0.780356 4.94702C0.779495 4.92448 0.76782 4.88815 0.767773 4.93099ZM0.688728 1.5456C0.684746 1.61573 0.678832 1.29425 0.679508 1.28502C0.679898 1.28014 0.680306 1.27694 0.680677 1.27512C0.678508 1.26331 0.676436 1.20259 0.68077 1.19556C0.680936 1.21377 0.682813 1.26347 0.682474 1.26924C0.68233 1.27173 0.682181 1.27359 0.682012 1.27486C0.686669 1.29629 0.689532 1.53216 0.688728 1.5456ZM0.697175 2.07826C0.685618 1.99802 0.70119 1.98382 0.701878 1.99073C0.710867 2.07809 0.697473 2.02112 0.697006 2.0238C0.696245 2.0299 0.703436 2.09195 0.697169 2.07801C0.697171 2.0781 0.697173 2.07818 0.697175 2.07826ZM0.689354 1.65479C0.689065 1.65149 0.687629 1.58412 0.687785 1.58135C0.691255 1.52614 0.695457 1.71676 0.689354 1.65479ZM0.890574 14.8871C0.893468 14.8389 0.904875 14.8862 0.900923 14.9182C0.900532 14.9209 0.888013 14.9296 0.890574 14.8871ZM0.770728 4.96951C0.769541 4.9807 0.769875 5.26675 0.781647 5.24957C0.779745 5.22528 0.778713 4.90012 0.770728 4.96951ZM0.809667 7.1073C0.80888 7.05685 0.822719 7.11185 0.81841 7.13877C0.816802 7.14875 0.809869 7.12002 0.809667 7.1073ZM0.901513 16.0846C0.910416 16.137 0.880676 16.1261 0.890833 16.0807C0.89123 16.079 0.901165 16.0825 0.901513 16.0846ZM0.80967 6.7043C0.820587 6.87827 0.77967 6.83707 0.789215 6.61089C0.791108 6.61797 0.793003 6.62505 0.794901 6.63212C0.796064 6.37106 0.797375 6.61427 0.80077 6.6782C0.802063 6.70249 0.80834 6.68212 0.809715 6.70413C0.8097 6.70419 0.809685 6.70424 0.80967 6.7043ZM0.813471 7.37258C0.786826 7.54012 0.800763 7.22028 0.795371 7.12853C0.808828 7.21747 0.809106 7.33326 0.818633 7.17578C0.825119 7.40604 0.811732 7.31018 0.810938 7.31937C0.810034 7.33026 0.814608 7.36544 0.813471 7.37258ZM0.80557 6.93064C0.804568 6.92096 0.809076 6.84799 0.807641 6.82171C0.81807 6.85846 0.812436 6.99494 0.80557 6.93064ZM0.716616 2.63669C0.71102 2.63063 0.706657 2.61565 0.707199 2.55805C0.710359 2.57585 0.713654 2.61263 0.716616 2.63669ZM0.779943 20.156C0.777002 20.1956 0.769439 20.2746 0.77821 20.2504C0.779015 20.2477 0.78412 20.1561 0.779943 20.156ZM0.782369 5.80036C0.781666 5.8088 0.785335 6.02693 0.791845 5.95159C0.793805 5.92887 0.788756 5.73038 0.782369 5.80036ZM0.75962 4.67075C0.759952 4.689 0.762824 4.76317 0.764433 4.76474C0.769983 4.76976 0.764949 4.67873 0.75962 4.67075ZM0.760391 20.3561C0.759397 20.3613 0.752817 20.4824 0.756828 20.4691C0.764583 20.4438 0.764007 20.3382 0.760391 20.3561ZM0.867415 14.7116C0.867026 14.7015 0.877461 14.6881 0.877566 14.6846C0.877695 14.6764 0.873023 14.491 0.886708 14.5618C0.88902 14.5736 0.884748 14.8403 0.8835 14.875C0.869136 14.8884 0.882495 14.7745 0.880919 14.7468C0.880622 14.7419 0.868573 14.7388 0.867475 14.7117C0.867455 14.7117 0.867435 14.7116 0.867415 14.7116ZM0.703077 2.33666C0.697858 2.32849 0.689066 2.11057 0.694972 2.11309C0.697669 2.18762 0.700371 2.26214 0.703077 2.33666ZM0.705144 2.44736C0.70277 2.49386 0.698815 2.38496 0.699544 2.35286C0.702881 2.35252 0.705491 2.44059 0.705144 2.44736ZM0.744422 5.08407C0.746438 5.10597 0.754513 5.03862 0.756635 5.05369C0.757975 5.06334 0.755434 5.11227 0.758704 5.12788C0.759742 5.13231 0.767579 5.08239 0.766882 5.06796C0.765939 5.04745 0.759398 5.06734 0.758888 5.04496C0.757216 4.97067 0.760749 4.9048 0.759138 4.83515C0.758985 4.82886 0.755178 4.87764 0.754119 4.82399C0.753953 4.8157 0.760063 4.76589 0.7576 4.70171C0.732626 4.55998 0.751886 4.45592 0.740131 4.27605C0.738297 4.28284 0.735745 4.41735 0.735691 4.42527C0.735302 4.57561 0.740271 4.84495 0.743299 5.00241C0.74407 5.04282 0.748471 5.02319 0.748992 5.0406C0.749395 5.05435 0.740199 5.038 0.744422 5.08407ZM0.776133 20.1349C0.765797 20.1538 0.767677 20.2201 0.764565 20.2625C0.7736 20.2476 0.771651 20.1763 0.776133 20.1349ZM0.723724 3.42574C0.724529 3.44697 0.723733 3.51279 0.726199 3.51822C0.729433 3.52523 0.729067 3.43023 0.723724 3.42574ZM0.866675 13.6664C0.866326 13.6644 0.866732 13.6133 0.867113 13.6114C0.876858 13.5657 0.875611 13.7189 0.866675 13.6664ZM0.86151 12.4448C0.85972 12.406 0.855628 12.367 0.865413 12.3539C0.864086 12.3786 0.86844 12.4493 0.86151 12.4448ZM0.846391 10.7593C0.834019 10.7673 0.840899 10.6507 0.84177 10.6287C0.847364 10.6369 0.855308 10.7535 0.846391 10.7593ZM0.693178 2.64508C0.691919 2.57382 0.680956 2.58887 0.685029 2.54362C0.68573 2.53624 0.708604 2.51237 0.70176 2.5907C0.700504 2.6048 0.693586 2.54965 0.693178 2.64508ZM0.788888 6.57405C0.781666 6.55593 0.782722 6.49928 0.782583 6.461C0.787827 6.46959 0.787912 6.54682 0.788888 6.57405ZM0.739437 20.5748C0.729088 20.6083 0.72497 20.7627 0.732692 20.7245C0.733808 20.719 0.73778 20.5965 0.739437 20.5748ZM0.876427 15.5017C0.866427 15.4381 0.863596 15.5697 0.873323 15.6113C0.872662 15.5925 0.877087 15.506 0.876427 15.5017ZM0.843572 11.1642C0.843165 11.1611 0.84342 11.0937 0.843845 11.0907C0.852965 11.0355 0.852335 11.2261 0.843572 11.1642ZM0.848436 12.8465C0.840384 12.8222 0.845748 12.6626 0.853377 12.6269C0.86514 12.6613 0.858522 12.8766 0.848436 12.8465ZM0.703402 2.93831C0.701962 2.88748 0.702268 2.83924 0.703144 2.79254C0.707295 2.80236 0.706265 2.93294 0.703402 2.93831ZM0.840399 10.9168C0.840415 10.9132 0.841102 10.9097 0.841145 10.9063C0.840911 10.9099 0.840637 10.9134 0.840399 10.9168ZM0.725964 4.07623C0.725114 4.11884 0.733075 4.10999 0.733266 4.10737C0.735191 4.07532 0.726904 4.028 0.725964 4.07623ZM0.759743 20.1836C0.750738 20.1984 0.752907 20.27 0.748519 20.3112C0.75551 20.2993 0.758701 20.2168 0.759743 20.1836ZM0.797515 7.55201C0.788258 7.60554 0.773365 7.38776 0.779088 7.34187C0.785149 7.33848 0.798753 7.54418 0.797515 7.55201ZM0.859742 15.699C0.850866 15.7032 0.861704 15.7947 0.865878 15.7753C0.868535 15.763 0.865258 15.6964 0.859742 15.699ZM0.781565 7.23235C0.77907 7.21189 0.785343 7.16419 0.789894 7.18098C0.795746 7.20254 0.782279 7.23763 0.781565 7.23235ZM0.744716 5.39652C0.743894 5.40547 0.752712 5.52578 0.758327 5.47608C0.762203 5.44159 0.752843 5.4361 0.752665 5.42799C0.752534 5.41893 0.760104 5.22578 0.744716 5.39652ZM0.808714 8.77176C0.805161 8.72636 0.807848 8.67148 0.806988 8.62397C0.811967 8.64332 0.814767 8.75244 0.808714 8.77176ZM0.856775 15.3463C0.853227 15.3574 0.851574 15.6577 0.862334 15.4871C0.862947 15.4771 0.867574 15.3128 0.856775 15.3463ZM0.693178 2.64508C0.693335 2.65407 0.693343 2.66444 0.693133 2.67647C0.693046 2.66453 0.693138 2.65413 0.693178 2.64508ZM0.710975 3.45444C0.706676 3.43804 0.70741 3.52069 0.710056 3.54508C0.715092 3.55259 0.711575 3.4567 0.710975 3.45444ZM0.799193 8.62036C0.795656 8.59298 0.798383 8.5433 0.797555 8.50941C0.802768 8.51515 0.804286 8.60852 0.799193 8.62036ZM0.815354 10.5426C0.818105 10.4883 0.815914 10.4214 0.809167 10.4203C0.810209 10.4192 0.811302 10.4166 0.812382 10.4122C0.813449 10.4078 0.809736 10.3496 0.811774 10.3243C0.823902 10.1728 0.825625 10.9092 0.802334 10.4824C0.806668 10.5025 0.811008 10.5225 0.815354 10.5426ZM0.83289 13.0624C0.82434 13.0933 0.835749 13.1797 0.839068 13.1573C0.84134 13.1416 0.841493 13.0315 0.83289 13.0624ZM0.81998 11.8752C0.818526 11.8845 0.825128 11.9688 0.829646 11.971C0.834018 11.9225 0.826725 11.8332 0.81998 11.8752ZM0.823931 13.2996C0.822707 13.319 0.836956 13.3437 0.837562 13.3414C0.842612 13.3217 0.83162 13.2671 0.823931 13.2996ZM0.674512 2.79271C0.672752 2.82152 0.680645 2.91337 0.686614 2.93336C0.685628 2.93708 0.684456 2.94711 0.683174 2.9655C0.683173 2.96545 0.683172 2.96539 0.68317 2.96534C0.681544 2.99016 0.694333 3.73249 0.694987 3.23456C0.695004 3.21897 0.690353 3.24027 0.689911 3.17682C0.689888 3.17263 0.693987 3.17055 0.693908 3.1576C0.69372 3.12781 0.692779 2.96912 0.688813 2.93722C0.689556 2.93695 0.690224 2.93489 0.69078 2.93051C0.695676 2.89139 0.675802 2.77035 0.674512 2.79271ZM0.817491 11.708C0.815167 11.725 0.817908 11.7787 0.82381 11.7843C0.826475 11.7576 0.82291 11.6686 0.817491 11.708ZM0.831539 15.3556C0.82654 15.3902 0.836154 15.4779 0.841143 15.4514C0.844213 15.4352 0.837277 15.3158 0.831539 15.3556ZM0.824575 12.2463C0.830168 12.0479 0.823682 12.1989 0.814804 12.1686C0.818058 12.1945 0.821315 12.2204 0.824575 12.2463ZM0.666498 1.87475C0.666185 1.90637 0.656221 1.86921 0.660338 1.83438C0.661636 1.82346 0.666644 1.85705 0.666498 1.87475ZM0.628335 0.446623C0.622555 0.473616 0.623002 0.341782 0.628701 0.393162C0.628916 0.395548 0.628536 0.444691 0.628335 0.446623ZM0.65027 1.44456C0.655956 1.46602 0.656942 1.48001 0.65712 1.54048C0.653472 1.45095 0.650871 1.53399 0.65027 1.44456ZM0.808112 10.4209C0.808507 10.4206 0.808799 10.4203 0.809167 10.4203C0.808808 10.4207 0.808466 10.4209 0.808112 10.4209ZM0.827604 13.4861C0.818779 13.5109 0.819755 13.5805 0.828674 13.5598C0.829502 13.5578 0.834265 13.4963 0.827604 13.4861ZM0.686614 2.93336C0.687487 2.93007 0.688134 2.93174 0.688813 2.93722C0.688114 2.93748 0.687417 2.93606 0.686614 2.93336ZM0.818432 13.1124C0.825087 13.1149 0.827078 13.009 0.826273 13.0048C0.814446 12.944 0.817802 13.0687 0.818432 13.1124ZM0.822848 16.0559C0.823563 16.0614 0.841127 16.0261 0.834218 16.0045C0.828859 15.9878 0.820129 16.0354 0.822848 16.0559ZM0.643296 1.2392C0.642501 1.20566 0.641375 1.15844 0.644995 1.14973C0.64496 1.1722 0.646173 1.23989 0.643296 1.2392ZM0.62494 0.498236C0.629979 0.537874 0.632325 0.628414 0.633089 0.686224C0.627609 0.68729 0.627152 0.535431 0.62494 0.498236ZM0.675311 2.70173C0.67508 2.70448 0.674676 2.78858 0.679347 2.7771C0.686182 2.76032 0.677431 2.67801 0.675311 2.70173ZM0.832046 15.8926C0.826053 15.855 0.807824 15.9415 0.821999 15.9812C0.829261 16.0016 0.833052 15.8989 0.832046 15.8926ZM0.81687 13.7034C0.822012 13.753 0.830223 13.63 0.82126 13.6128C0.820653 13.6357 0.815053 13.6857 0.81687 13.7034ZM0.798594 12.0147C0.774696 12.1711 0.819642 12.0859 0.815436 12.0582C0.814835 12.0543 0.799151 12.0109 0.798594 12.0147ZM0.682198 20.9629C0.682911 20.9851 0.695955 20.9025 0.691442 20.8918C0.688575 20.8852 0.681708 20.9488 0.682198 20.9629ZM0.7936 9.65975C0.793746 9.66635 0.793894 9.67291 0.794031 9.67939C0.793598 9.67453 0.793404 9.66813 0.7936 9.65975ZM0.784136 14.1539C0.82015 14.0438 0.792135 14.0553 0.792262 14.0458C0.792582 14.0251 0.802233 13.977 0.800472 13.9381C0.804728 13.9827 0.808987 14.0273 0.813247 14.0719C0.815775 14.0367 0.827861 13.7305 0.821936 13.7241C0.813536 13.7149 0.816567 13.8112 0.81584 13.814C0.814808 13.8181 0.791589 13.8331 0.790736 13.8421C0.789388 13.8568 0.789825 14.1128 0.784136 14.1539ZM0.804655 12.3418C0.807198 12.3166 0.816148 12.3095 0.81392 12.2978C0.813158 12.2938 0.804573 12.2932 0.802267 12.2796C0.803063 12.3003 0.803859 12.321 0.804655 12.3418ZM0.817544 14.351C0.806834 14.3822 0.81048 14.2424 0.81167 14.2379C0.818906 14.214 0.826294 14.3255 0.817544 14.351ZM0.810979 13.1653C0.810387 13.1704 0.807593 13.2777 0.813507 13.2769C0.817884 13.2485 0.818445 13.105 0.810979 13.1653ZM0.801574 12.2628C0.802337 12.2251 0.810479 12.1538 0.797648 12.162C0.797648 12.1621 0.797648 12.1621 0.797649 12.1622C0.798957 12.1957 0.800266 12.2293 0.801574 12.2628ZM0.803499 15.7638C0.782147 15.8337 0.809189 15.8006 0.816029 15.7388C0.80639 15.72 0.806973 15.7524 0.803499 15.7638ZM0.787722 15.9874C0.783885 16.0069 0.788219 16.2071 0.799548 16.1766C0.803589 16.1657 0.793326 16.0505 0.794106 16.0452C0.795262 16.0372 0.807838 16.0739 0.805308 16.0125C0.801059 16.0161 0.789005 15.9808 0.787722 15.9874ZM0.78984 15.8217C0.773607 15.8911 0.803679 15.9067 0.803713 15.8545C0.803747 15.8341 0.792182 15.8118 0.78984 15.8217ZM0.792073 15.5381C0.789261 15.5631 0.785189 15.6296 0.795232 15.6755C0.796013 15.6141 0.796785 15.5527 0.797549 15.4913C0.791883 15.4843 0.794545 15.5162 0.792073 15.5383C0.792073 15.5382 0.792073 15.5381 0.792073 15.5381ZM0.585006 0.0810509C0.582815 0.136209 0.579139 0.0091362 0.57983 0.00375748C0.582118 -0.0121994 0.585961 0.0563889 0.585006 0.0810509ZM0.516187 21.3938C0.514262 21.4091 0.508585 21.4191 0.511137 21.4529C0.515581 21.4189 0.520193 21.385 0.524968 21.3511C0.5156 21.3247 0.518299 21.377 0.516187 21.3938ZM0.48144 21.5234C0.481214 21.5186 0.467335 21.5447 0.476446 21.4828C0.482986 21.441 0.488726 21.6685 0.482982 21.7096C0.480255 21.6642 0.483237 21.5646 0.48144 21.5234ZM0.432592 21.9219C0.431779 21.9245 0.427759 21.8381 0.428127 21.8281C0.430238 21.7755 0.437068 21.9077 0.432592 21.9219ZM0.427091 21.6461C0.425684 21.6867 0.421452 21.5969 0.42221 21.5701C0.424695 21.5675 0.427293 21.6399 0.427091 21.6461ZM0.417781 0.639647C0.408853 0.683516 0.426566 0.722754 0.423625 0.655256C0.423485 0.652035 0.418209 0.637777 0.417781 0.639647ZM0.418013 21.8374C0.418939 21.7969 0.423505 21.8867 0.423141 21.9134C0.421111 21.9159 0.417892 21.8436 0.418013 21.8374ZM0.397409 0.67053C0.390449 0.728794 0.411199 0.708275 0.412095 0.700994C0.415677 0.671 0.40904 0.568171 0.407433 0.547163C0.408368 0.701078 0.400656 0.643097 0.397409 0.67053ZM0.406163 0.939253C0.407781 0.993303 0.413723 0.855169 0.408232 0.82881C0.408175 0.855673 0.405707 0.92388 0.406163 0.939253ZM0.394894 1.26731C0.393712 1.29637 0.390576 1.38281 0.393965 1.39731C0.39375 1.36558 0.398349 1.27958 0.394894 1.26731ZM0.383381 1.33311C0.377853 1.37854 0.391828 1.38943 0.388365 1.33705C0.388232 1.33502 0.383673 1.33144 0.383381 1.33311ZM0.37433 1.58849C0.368043 1.61829 0.381731 1.65231 0.382804 1.60401C0.383091 1.58967 0.375042 1.58533 0.37433 1.58849ZM0.374218 0.74346C0.3712 0.786139 0.379212 0.841112 0.381769 0.750006C0.382573 0.782009 0.3834 0.814011 0.38425 0.846014C0.391215 0.726671 0.378745 0.735426 0.37988 0.701162C0.381464 0.653276 0.391379 0.657057 0.394383 0.66667C0.388835 0.627411 0.39156 0.460608 0.392092 0.364208C0.388226 0.448933 0.381414 0.586418 0.378232 0.670027C0.377319 0.693899 0.379668 0.717062 0.378998 0.737417C0.3779 0.77005 0.374404 0.741064 0.374221 0.743292C0.37422 0.743347 0.374219 0.743404 0.374218 0.74346ZM0.36898 1.92418C0.36075 2.01177 0.376503 1.95638 0.374545 1.90689C0.374375 1.90478 0.369184 1.922 0.36898 1.92418ZM0.388313 21.9535C0.386406 21.8365 0.398153 21.9216 0.374777 21.6768C0.387732 21.7796 0.380554 21.6825 0.384668 21.7025C0.387875 21.7186 0.388786 21.779 0.391891 21.7439C0.38878 21.79 0.400368 21.9902 0.400079 21.9991C0.400075 21.999 0.40007 21.9989 0.400066 21.9989C0.399923 22.0042 0.389007 21.9909 0.388313 21.9535ZM0.359516 1.26773C0.342491 1.29695 0.368472 1.3084 0.353658 1.36584C0.372253 1.4423 0.357708 1.15461 0.374744 1.11977C0.367615 1.43222 0.394368 0.913343 0.366275 1.13144C0.37833 0.951769 0.364365 1.07256 0.361798 1.04483C0.359108 1.01516 0.364628 0.913536 0.358735 0.918692C0.358734 0.918747 0.358733 0.918804 0.358731 0.918859C0.35787 0.981018 0.357028 1.04318 0.356205 1.10534C0.370191 1.0445 0.364068 1.17152 0.352534 1.21461C0.354839 1.23232 0.357167 1.25002 0.359516 1.26773ZM0.377912 0.915922C0.37751 0.922049 0.376959 1.05725 0.379683 1.04852C0.381594 1.03046 0.382854 0.838587 0.377912 0.915922ZM0.38594 0.320904C0.385032 0.369446 0.381381 0.444511 0.385267 0.470961C0.386178 0.422401 0.389707 0.347336 0.38594 0.320904ZM0.342318 2.82057C0.346357 2.88245 0.350719 2.69193 0.344028 2.74705C0.34371 2.74976 0.342133 2.81753 0.342318 2.82057ZM0.359422 1.40847C0.353131 1.47138 0.37006 1.44165 0.366585 1.39504C0.366384 1.39235 0.359712 1.40556 0.359422 1.40847ZM0.381319 21.8587C0.37764 21.8545 0.370449 21.6847 0.368875 21.6546C0.373366 21.6717 0.385411 21.8635 0.381319 21.8587ZM0.37522 0.23547C0.361234 0.33206 0.372295 0.463131 0.371816 0.477507C0.371205 0.491795 0.366263 0.469378 0.366054 0.472639C0.365588 0.480068 0.362815 0.632278 0.363055 0.639647C0.363257 0.64492 0.3716 0.617374 0.373454 0.648794C0.370188 0.587509 0.378489 0.309238 0.377936 0.294804C0.377527 0.283615 0.36805 0.367941 0.375217 0.235638C0.375218 0.23558 0.375219 0.235525 0.37522 0.23547ZM0.369424 0.513426C0.373385 0.475401 0.371668 0.582031 0.369956 0.60784C0.3661 0.66518 0.368939 0.518305 0.369424 0.513426ZM0.361123 0.769896C0.360126 0.782074 0.357131 0.891975 0.36076 0.90132C0.366712 0.849298 0.363409 0.742271 0.361123 0.769896ZM0.337405 1.99283C0.337444 2.02138 0.332484 2.09987 0.33635 2.10436C0.336318 2.07579 0.341219 1.99731 0.337405 1.99283ZM0.315679 21.2794C0.315408 21.3268 0.306925 21.2169 0.306557 21.1849C0.309204 21.1831 0.315699 21.2753 0.315679 21.2794ZM0.324779 1.41913C0.323249 1.43602 0.31813 1.78082 0.318918 1.82918C0.322843 1.78187 0.330533 1.44017 0.329584 1.42467C0.329287 1.42014 0.325002 1.41697 0.324779 1.41913ZM0.341024 0.673468C0.3371 0.641851 0.343253 0.621225 0.343411 0.617239C0.345079 0.578144 0.346033 0.497074 0.350016 0.514853C0.346539 0.583838 0.348894 0.736401 0.341024 0.673468ZM0.310894 2.01734C0.310469 2.13441 0.321419 1.90953 0.314808 1.93904C0.314409 1.94094 0.310943 2.00523 0.310894 2.01734ZM0.324137 1.38061C0.320472 1.35479 0.332421 1.0099 0.333738 0.954527C0.339931 1.00412 0.333392 1.04409 0.332173 1.11071C0.33186 1.12868 0.335123 1.12389 0.335083 1.12581C0.334509 1.15695 0.331406 1.13364 0.330898 1.15284C0.330533 1.16496 0.329293 1.41695 0.324137 1.38061ZM0.33821 0.655424C0.335965 0.636139 0.340462 0.420795 0.341386 0.412128C0.348118 0.347324 0.339571 0.638689 0.33821 0.655424ZM0.316372 1.41225C0.30813 1.37517 0.318558 1.20387 0.320131 1.32111C0.320277 1.3323 0.315159 1.37971 0.316372 1.41225ZM0.301695 2.00483C0.301273 2.01059 0.296374 2.13264 0.299546 2.13483C0.301208 2.11719 0.306438 1.93928 0.301695 2.00483ZM0.292564 1.94155C0.292571 1.94449 0.299312 1.91588 0.297156 1.97311C0.296974 1.97788 0.289898 1.98677 0.290629 2.05871C0.290785 2.07331 0.294825 2.09592 0.295152 2.09429C0.30767 2.01938 0.292704 1.79377 0.292564 1.94155ZM0.333761 0.65148C0.331078 0.663088 0.324809 0.63509 0.329045 0.609854C0.330861 0.599033 0.334508 0.619221 0.333761 0.65148ZM0.289784 2.39189C0.286008 2.32094 0.279643 2.54368 0.280807 2.55503C0.284463 2.54789 0.290155 2.39898 0.289784 2.39189ZM0.265988 21.1684C0.265993 21.1684 0.265997 21.1685 0.266001 21.1685C0.262695 21.1088 0.27019 21.1458 0.270106 21.143C0.267708 21.0159 0.259461 21.0496 0.256658 21.0297C0.250667 20.9871 0.264656 20.994 0.253934 20.922C0.270681 21.0409 0.259514 20.9327 0.264215 20.9293C0.283057 20.916 0.265808 21.0876 0.274551 21.1469C0.275656 21.1551 0.277283 21.0942 0.280494 21.1153C0.290159 21.1841 0.279051 21.3974 0.265988 21.1684ZM0.328958 0.590384C0.325601 0.562698 0.335378 0.352665 0.337103 0.408352C0.337359 0.417313 0.333893 0.631075 0.328958 0.590384ZM0.131192 10.4019C0.123963 10.3514 0.113492 10.4684 0.119329 10.4901C0.122246 10.5009 0.134377 10.4241 0.131192 10.4019ZM0.0887994 11.2222C0.0897827 11.2821 0.122524 11.3454 0.118051 11.2707C0.117552 11.2628 0.0934745 11.2153 0.0887994 11.2222ZM0.158944 7.28345C0.147631 7.34609 0.166736 7.34236 0.167229 7.29638C0.167407 7.28014 0.159302 7.28148 0.158944 7.28345ZM0.126026 9.67393C0.12521 9.6802 0.125648 9.75261 0.130539 9.74997C0.133774 9.7232 0.131576 9.63339 0.126026 9.67393ZM0.156586 7.26357C0.159379 7.3007 0.174151 7.23678 0.161556 7.19139C0.162258 7.21445 0.156306 7.25974 0.156586 7.26357ZM0.287871 1.54166C0.291718 1.57276 0.287914 1.66073 0.287373 1.71127C0.280969 1.71672 0.287984 1.57776 0.287871 1.54166ZM0.104752 10.9675C0.112398 11.0243 0.120358 10.9027 0.109393 10.9138C0.108788 10.9154 0.104426 10.9653 0.104752 10.9675ZM0.194066 5.26274C0.198532 5.30402 0.208365 5.17296 0.198312 5.20903C0.197897 5.21081 0.19382 5.26048 0.194066 5.26274ZM0.209411 4.69047C0.206999 4.72178 0.20461 4.85532 0.210753 4.80334C0.211696 4.79528 0.214012 4.69282 0.209411 4.69047ZM0.251187 21.0262C0.245063 21.0431 0.239239 20.9451 0.239559 20.9311C0.239783 20.9256 0.259257 21.0042 0.251187 21.0262ZM0.150474 7.69023C0.151268 7.72264 0.147365 7.80669 0.152722 7.82149C0.152207 7.78184 0.161715 7.67957 0.150474 7.69023ZM0.107448 10.7086C0.093976 10.7581 0.0943058 10.8426 0.111487 10.8217C0.111339 10.7284 0.096143 10.8332 0.107448 10.7086ZM0.148251 7.05485C0.146918 7.08084 0.160567 7.10075 0.161281 7.09782C0.168039 7.06966 0.154153 7.02903 0.148251 7.05485ZM0.128749 9.00498C0.122185 9.00648 0.123973 9.08978 0.128357 9.07866C0.129827 9.07502 0.134059 9.00377 0.128749 9.00498ZM0.256241 2.63266C0.251388 2.67083 0.250785 2.55427 0.256132 2.51978C0.262923 2.50302 0.256813 2.62784 0.256241 2.63266ZM0.165337 6.3342C0.156908 6.33032 0.159153 6.46053 0.167243 6.40922C0.169259 6.39638 0.168149 6.33555 0.165337 6.3342ZM0.181834 5.08768C0.189249 5.17502 0.203853 4.80827 0.190275 4.90464C0.189311 4.91153 0.181223 5.08007 0.181834 5.08768ZM0.201308 4.48872C0.199972 4.50378 0.175091 4.49627 0.186297 4.43391C0.187742 4.42573 0.193404 4.46402 0.195081 4.45733C0.196043 4.45339 0.202774 4.3178 0.202344 4.31155C0.201852 4.30484 0.19375 4.31274 0.193031 4.30593C0.19224 4.29825 0.201221 4.21478 0.202356 4.17107C0.204502 4.08869 0.198281 4.0798 0.19843 4.07304C0.19889 4.05336 0.204288 4.02028 0.205279 3.98039C0.210161 3.7793 0.213192 3.47177 0.230087 3.31236C0.221296 3.45422 0.223289 3.5894 0.221581 3.73055C0.209518 3.68921 0.226582 3.93821 0.215023 3.79257C0.216482 3.85963 0.205434 4.43932 0.201312 4.48855C0.201311 4.4886 0.20131 4.48866 0.201308 4.48872ZM0.0765405 11.4589C0.0648759 11.4221 0.0656422 11.6111 0.0794967 11.6272C0.0816683 11.6022 0.0778499 11.4635 0.0765405 11.4589ZM0.0573663 10.5866C0.0555507 10.569 0.0328069 10.5524 0.0456669 10.4603C0.045668 10.4602 0.0456691 10.4601 0.0456702 10.46C0.0494186 10.4331 0.0545924 10.4638 0.0566469 10.4589C0.0574893 10.4571 0.0699375 10.3731 0.070885 10.4428C0.0723639 10.5492 0.0537153 10.4529 0.052744 10.5096C0.0526226 10.5165 0.063705 10.6238 0.0665286 10.6176C0.0668542 10.6169 0.0646191 10.5846 0.0658212 10.5793C0.0703371 10.5592 0.0773898 10.569 0.0777664 10.5661C0.0787294 10.5568 0.0686608 10.3871 0.0795972 10.3624C0.0830804 10.3544 0.0876637 10.633 0.0857757 10.6438C0.0845654 10.6507 0.0646355 10.6478 0.0625842 10.6549C0.0615524 10.6586 0.0676931 10.7706 0.0656866 10.7852C0.0651035 10.7894 0.0644905 10.7926 0.0639886 10.795C0.0703874 10.778 0.0687595 10.8795 0.0617803 10.8764C0.0590427 10.8746 0.0614701 10.8048 0.0619811 10.8023C0.0621978 10.8012 0.0624898 10.8002 0.062694 10.7993C0.0549386 10.8138 0.0582111 10.5774 0.0463863 10.6284C0.0411377 10.5598 0.0626794 10.6381 0.0573663 10.5866ZM0.049469 10.2571C0.0514468 10.2642 0.0534262 10.2713 0.0554072 10.2784C0.0519587 10.1583 0.0638309 10.0199 0.0656951 9.88164C0.0661902 9.84657 0.0530822 9.88692 0.0571725 9.84094C0.0604557 9.80411 0.0726234 9.76334 0.0749215 9.78337C0.0755007 9.78826 0.066882 9.86325 0.0671275 9.90078C0.0678764 10.0116 0.0790713 9.98359 0.0792693 9.99007C0.0794832 9.99722 0.0709462 10.067 0.0707702 10.105C0.0703562 10.2008 0.0764848 10.2445 0.0660483 10.3754C0.059832 10.2999 0.0436823 10.3412 0.049469 10.2571ZM0.15148 5.78424C0.146043 5.77968 0.152721 5.70116 0.152552 5.67263C0.157963 5.67712 0.151308 5.7557 0.15148 5.78424ZM0.0316665 17.4862C0.0441389 17.5103 0.0440669 17.3295 0.0347709 17.3772C0.0326859 17.3877 0.0313064 17.4635 0.0316665 17.4862ZM0.0301651 16.6741C0.0266612 16.6499 0.0181482 16.7473 0.0277109 16.7471C0.0307591 16.747 0.0306076 16.6772 0.0301651 16.6741ZM0.0838233 8.70596C0.0835672 8.70138 0.0870424 8.63486 0.0876153 8.63278C0.0995827 8.58871 0.0894918 8.80766 0.0838233 8.70596ZM0.0153957 15.6868C0.0233232 15.7711 0.0272846 15.5174 0.0168455 15.5949C0.0163347 15.5988 0.0150084 15.6827 0.0153957 15.6868ZM0.0138976 15.3342C0.0142768 15.3544 0.0100564 15.4441 0.0138127 15.4453C0.0198688 15.4471 0.0242486 15.3444 0.0138976 15.3342ZM0.111527 7.03731C0.100274 7.04704 0.111097 6.92873 0.110568 6.88759C0.121735 6.87782 0.110983 6.99619 0.111527 7.03731ZM0.0884144 7.78414C0.0892358 7.28533 0.111195 7.39529 0.0934462 7.81385C0.0860575 7.81446 0.0883807 7.81562 0.0884144 7.78414ZM0.102455 7.1454C0.109203 7.16353 0.105956 7.22017 0.104611 7.25845C0.0997669 7.25156 0.103168 7.17301 0.102455 7.1454ZM0.0176315 17.7015C0.00588733 17.6702 0.016364 17.5317 0.0214658 17.5563C0.0225066 17.562 0.0238533 17.713 0.0176315 17.7015ZM0.0742975 8.66417C0.0624645 8.67578 0.0698592 8.526 0.0726227 8.51453C0.0837437 8.4683 0.0719444 8.65204 0.0742975 8.66417ZM0.117447 6.32933C0.109965 6.30288 0.11585 6.22775 0.117063 6.17944C0.123399 6.20144 0.118519 6.28833 0.117447 6.32933ZM0.103271 6.67811C0.10302 6.67508 0.105259 6.60769 0.105704 6.60468C0.114932 6.54947 0.108722 6.74009 0.103271 6.67811ZM0.218105 21.2511C0.217695 21.2489 0.213078 21.1978 0.213132 21.196C0.214293 21.1505 0.227874 21.3037 0.218105 21.2511Z" fill="white"/>
</svg>
